<svg width="303" height="375" viewBox="0 0 303 375" fill="none" xmlns="http://www.w3.org/2000/svg">
<path fill-rule="evenodd" clip-rule="evenodd" d="M125.873 79.9253C131.455 82.0488 136.664 82.6196 138.877 81.6006C144.424 79.0454 141.1 57.6448 135.076 50.0619C129.052 42.4789 105.241 43.0113 107.089 59.8629C107.73 65.7116 111.087 70.4267 115.429 73.9838L114.434 105.091L133.082 101.713L125.873 79.9253Z" fill="#ECC096"/>
<path fill-rule="evenodd" clip-rule="evenodd" d="M126.053 42.2489C123.364 41.9329 119.617 42.3393 118.093 42.7995C118.594 40.5169 118.517 38.0887 117.814 35.8384C117.13 33.6517 115.786 31.9279 114.501 30.0992C113.908 29.2563 113.26 28.4287 112.413 27.8553C111.55 27.2712 110.537 26.966 109.523 26.9165C108.485 26.8657 107.448 27.0735 106.488 27.4639C106.064 27.6366 105.705 27.9101 105.293 28.1007C104.87 28.2959 104.605 28.0573 104.233 27.8367C103.336 27.3051 102.14 27.1792 101.138 27.2381C100.014 27.3042 98.903 27.677 97.9195 28.2289C96.9622 28.7661 96.0849 29.5158 95.4976 30.4829C95.2361 30.9134 95.0142 31.3897 94.9047 31.8909C94.8598 32.0967 94.8672 32.2124 94.6891 32.317C94.5245 32.4138 94.3184 32.4531 94.1475 32.5478C92.495 33.4634 91.2363 35.0974 90.7333 36.9937C90.4398 38.1 90.5385 39.9364 90.9651 41.9374C91.3916 43.9384 94.1584 48.86 96.2035 50.4676C98.029 51.9024 100.461 52.6269 102.701 52.7312C101.57 54.6222 100.989 56.8343 100.662 59.0363C100.307 61.4282 100.259 63.8555 100.517 66.273C100.762 68.5699 101.181 70.97 102.114 73.0923C102.987 75.077 104.357 76.5865 106.326 77.3449C107.229 77.6924 108.17 77.9056 109.111 78.086C110.038 78.2637 110.966 78.4316 111.907 78.455C113.689 78.4991 115.658 78.0796 116.733 76.4717C117.12 75.8921 117.533 75.1773 117.771 74.5118C117.857 74.2724 117.907 74.117 117.717 73.9328C117.489 73.7121 117.159 73.571 116.889 73.415C115.35 72.5251 114.251 71.1642 113.718 69.4069C113.177 67.6238 113.24 65.1844 114.865 64.069C116.872 62.6921 119.481 63.3827 121.613 64.0808C121.91 61.0172 123.129 58.0864 125.543 56.2686C128.214 54.2575 131.554 53.4736 134.344 51.6577C135.071 51.1846 135.805 50.664 136.262 49.8854C136.453 49.56 136.671 49.1433 136.7 48.7534C136.739 48.2412 136.349 47.8882 136.036 47.551C134.379 45.7629 128.742 42.5648 126.053 42.2489Z" fill="#191847"/>
<path fill-rule="evenodd" clip-rule="evenodd" d="M231.332 228.935C236.057 238.542 246.735 256.438 260.685 276.685L269.645 272.209C252.178 222.969 239.205 190.624 233.407 181.115C229.576 174.832 209.997 179.196 214.728 192.377C216.712 197.905 223.242 212.486 231.332 228.935ZM185.937 200.041C171.089 206.034 141.149 223.136 132.669 228.404C127.339 231.714 132.435 238.745 137.21 237.184C138.019 236.92 140.894 236.06 145.183 234.777C158.96 230.655 187.333 222.167 208.724 215.025C219.987 211.264 209.839 190.713 198.246 195.183C194.346 196.686 190.204 198.318 185.937 200.041Z" fill="#ECC096"/>
<path fill-rule="evenodd" clip-rule="evenodd" d="M232.974 175.279C230.464 170.414 155.452 165.119 155.452 165.119L149.576 166.183L150.568 171.663L204.536 187.882C204.617 188.706 204.813 189.557 205.136 190.434C208.16 209.157 218.665 221.651 229.066 234.021C235.867 242.11 242.624 250.146 247.215 259.837L264.877 253.838C264.103 252.581 262.162 246.63 259.507 238.495C252.814 217.981 241.588 183.573 233.114 175.467C233.084 175.439 233.054 175.411 233.024 175.383C233.009 175.348 232.992 175.314 232.974 175.279Z" fill="#C5CFD6"/>
<path fill-rule="evenodd" clip-rule="evenodd" d="M161.94 211.036C157.255 210.95 152.946 210.896 149.27 210.916C125.529 211.045 116.586 199.935 115.682 172.323L158.078 164.643C165.364 165.38 204.091 173.964 224.22 178.615C237.542 181.693 237.118 201.566 231.023 207.822C231.04 208.134 230.952 208.365 230.744 208.499C206.202 224.311 183.424 227.589 168.798 229.694C162.672 230.576 157.976 231.252 155.178 232.556L147.945 218.862L161.94 211.036Z" fill="#C5CFD6"/>
<path fill-rule="evenodd" clip-rule="evenodd" d="M137.482 227.217C137.213 226.078 136.076 225.331 134.956 225.671C133.373 226.151 131.308 226.868 130.322 227.592C128.6 228.857 125.717 231.856 125.717 231.856C127.183 233.856 152.069 267.794 152.069 267.794C152.069 267.794 157.723 265.798 155.879 262.509C154.035 259.22 152.868 257.005 152.868 257.005L148.106 235.051C147.987 234.5 147.437 234.157 146.89 234.292L143.71 235.077C143.71 235.077 140.359 233.239 139.078 231.492C138.372 230.529 137.828 228.682 137.482 227.217Z" fill="#E4E4E4"/>
<path fill-rule="evenodd" clip-rule="evenodd" d="M257.857 272.263C256.714 272.005 255.544 272.7 255.359 273.856C255.096 275.491 254.836 277.662 255.054 278.867C255.435 280.97 256.866 284.878 256.866 284.878C259.304 284.436 300.692 276.939 300.692 276.939C300.692 276.939 301.376 270.978 297.614 271.195C293.852 271.411 291.351 271.488 291.351 271.488L269.546 266.143C268.999 266.008 268.449 266.353 268.331 266.904L267.642 270.108C267.642 270.108 264.523 272.316 262.393 272.702C261.22 272.914 259.323 272.594 257.857 272.263Z" fill="#E4E4E4"/>
<path fill-rule="evenodd" clip-rule="evenodd" d="M216.73 161.756L188.645 148.033L185.622 162.579L212.011 168.318C220.43 175.22 224.928 177.919 225.504 176.413C225.989 175.144 225.254 174.171 224.577 173.276C224.049 172.578 223.556 171.926 223.704 171.218C224.04 169.599 228.732 168.913 233.212 168.453C237.692 167.992 236.048 166.258 234.807 165.48C229.807 163.595 223.781 162.354 216.73 161.756ZM92.5626 217.394C94.0022 212.359 93.5952 165.9 93.5952 165.9L109.844 163.022C109.844 163.022 103.606 214.329 102.946 217.519C102.088 221.663 105.749 226.794 108.232 230.274C108.616 230.812 108.972 231.311 109.278 231.76C106.992 233.325 105.552 232.195 104.035 231.003C102.321 229.657 100.507 228.233 97.2605 230.526C96.0062 231.412 94.8465 232.401 93.7135 233.367C89.7998 236.704 86.2045 239.769 80.1261 237.384C79.1624 237.006 77.8477 235.163 79.8572 233.173C84.8637 228.214 91.8587 219.856 92.5626 217.394Z" fill="#ECC096"/>
<path fill-rule="evenodd" clip-rule="evenodd" d="M127.389 89.3579L133.899 86.9876C162.732 104.022 180.471 143.569 215.001 159.965L209.299 170.421C155.098 173.455 132.811 125.336 127.389 89.3579Z" fill="#FCCD04"/>
<path fill-rule="evenodd" clip-rule="evenodd" d="M113.405 179.16C113.405 179.16 153.816 171.84 172.856 168.391C175.573 167.899 174.35 164.066 173.598 162.156C164.925 140.117 142.769 118.679 136.874 86.137L119.238 86.5524C109.19 111.95 109.376 140.944 113.405 179.16Z" fill="white"/>
<path fill-rule="evenodd" clip-rule="evenodd" d="M103.642 112.276C100.482 112.618 97.4286 111.821 95.0659 108.929C86.748 98.747 87.8829 92.1058 94.2102 88.8442C97.6894 87.0508 101.293 87.192 105.606 87.3611C109.137 87.4995 113.144 87.6566 117.947 86.7864C118.413 86.7021 118.842 86.6566 119.237 86.6467L124.986 85.9409C124.986 85.9409 162.283 160.112 156.669 188.188L109.678 196.7C108.17 203.606 106.565 209.684 104.876 214.435L92.1254 216.744C82.7137 172.608 93.3193 135.414 103.642 112.276Z" fill="#FCCD04"/>
<path fill-rule="evenodd" clip-rule="evenodd" d="M109.678 196.7C111.658 187.639 113.471 177.153 115.091 166.37C118.405 177.322 122.584 188.167 127.242 193.518L109.678 196.7Z" fill="black" fill-opacity="0.1"/>
</svg>
