<svg width="94" height="103" viewBox="0 0 94 103" fill="none" xmlns="http://www.w3.org/2000/svg">
<path fill-rule="evenodd" clip-rule="evenodd" d="M63.0053 24.8054C64.4396 25.9817 65.9165 26.6629 66.667 26.5799C68.5491 26.3717 69.6653 19.7275 68.635 16.8962C67.6048 14.065 60.5476 11.8786 59.4422 17.0347C59.0585 18.8241 59.5847 20.5463 60.5141 22.0236L57.1772 31.1078L62.9941 31.9462L63.0053 24.8054Z" fill="#ECC096"/>
<path fill-rule="evenodd" clip-rule="evenodd" d="M65.7507 13.3886C65.002 13.1519 62.9501 12.7676 62.5695 12.7127C62.3262 12.6777 62.0546 12.6955 61.9424 12.4504C61.8506 12.2497 61.9381 11.9453 61.9332 11.7271C61.9275 11.4736 61.9043 11.2208 61.8802 10.9685C61.8118 10.2506 61.653 9.55413 61.3875 8.88346C60.8893 7.62518 60.0467 6.57436 58.8947 5.86753C57.6226 5.08705 56.1078 4.73201 54.633 4.64056C53.0546 4.54267 51.5687 4.85633 50.0263 5.13074C48.5564 5.39222 47.0601 5.36288 45.6241 4.92477C44.1773 4.4834 43.1742 3.51718 42.0352 2.5732C40.8693 1.60679 39.4823 0.884739 37.9555 0.784723C36.5303 0.691397 35.148 1.08861 33.8712 1.70136C32.6767 2.27467 31.6518 3.02384 30.9676 4.18755C30.2317 5.43935 30.0243 6.89993 30.7556 8.20536C31.8156 10.0976 34.1712 10.8869 36.1894 11.1331C37.3567 11.2755 38.5301 11.2269 39.684 10.9972C41.223 10.6909 42.6141 9.99617 44.0862 9.48203C44.777 9.24078 45.4811 9.06232 46.2062 8.9652C46.9099 8.87087 47.5886 8.8789 48.1425 9.37746C48.7286 9.90488 49.2484 10.4149 49.9508 10.7934C50.6247 11.1566 51.357 11.4109 52.1153 11.5142C53.5907 11.7152 55.1092 11.4635 56.5845 11.3609C57.7876 11.2773 59.0723 11.2063 60.2278 11.6199C60.71 11.7925 61.4056 12.1056 61.5112 12.6497C58.4144 12.764 56.6952 16.3419 57.1544 19.2165C57.4022 20.768 59.9159 22.9023 61.1005 22.2761C61.851 21.8794 61.5306 21.1705 61.3245 20.7033C60.9296 19.8085 60.9047 18.7286 61.9329 18.2934C62.8198 17.9181 63.5119 19.2127 63.5283 19.2137C63.7553 19.2283 65.8518 18.4063 67.417 16.9915C68.7241 17.26 69.0484 16.4159 68.8352 15.6567C68.6221 14.8974 66.7851 13.7158 65.7507 13.3886Z" fill="#191847"/>
<path fill-rule="evenodd" clip-rule="evenodd" d="M48.5579 46.3283C48.8533 51.9256 74.795 68.9089 74.939 69.3737C75.035 69.6835 66.3702 88.6687 66.3702 88.6687L68.6489 89.611C68.6489 89.611 81.7564 69.5834 81.1475 67.409C80.2758 64.296 61.1723 46.6413 61.1723 46.6413L48.5579 46.3283Z" fill="#ECC096"/>
<path fill-rule="evenodd" clip-rule="evenodd" d="M67.0324 85.7975L70.7544 87.2434C78.841 78.4445 82.0887 71.1157 81.5993 67.3385C81.11 63.5613 61.6937 46.6061 61.6937 46.6061L48.2885 46.3366C48.4857 59.2895 72.6441 69.3769 72.9587 69.935C73.2733 70.4932 69.9594 75.8309 67.0324 85.7975Z" fill="#FCCD04"/>
<path fill-rule="evenodd" clip-rule="evenodd" d="M67.3472 89.0821C66.376 88.7049 65.1572 88.442 64.6877 89.3717C64.6661 89.4145 64.6475 89.4555 64.6326 89.4942C64.4118 90.0673 64.1782 91.2406 64.1782 91.2406C64.8402 91.4977 76.0775 95.8627 76.0775 95.8627C76.0775 95.8627 77.1348 94.503 76.1828 93.992C75.2307 93.4811 74.6079 93.1254 74.6079 93.1254L70.5934 89.069C70.196 88.6675 69.5467 88.674 69.1591 89.0834L69.0177 89.2326C69.0177 89.2326 67.9256 89.3068 67.3472 89.0821V89.0821Z" fill="#E4E4E4"/>
<path fill-rule="evenodd" clip-rule="evenodd" d="M51.5786 46.389L39.3078 74.3673L27.3255 97.9882L30.0394 98.0427L60.778 46.5739L51.5786 46.389Z" fill="#ECC096"/>
<path fill-rule="evenodd" clip-rule="evenodd" d="M29.1858 97.0791C28.1448 97.0582 26.9106 97.2295 26.7853 98.2631C26.7795 98.3113 26.776 98.3567 26.7751 98.3986C26.7628 99.013 26.9429 100.196 26.9429 100.196C27.6526 100.21 39.6996 100.452 39.6996 100.452C39.6996 100.452 40.2301 98.8114 39.1614 98.6582C38.0927 98.505 37.3862 98.3847 37.3862 98.3847L32.2329 95.9524C31.7223 95.7114 31.1136 95.9405 30.8888 96.4584L30.8069 96.6468C30.8069 96.6468 29.8058 97.0916 29.1858 97.0791V97.0791Z" fill="#E4E4E4"/>
<path fill-rule="evenodd" clip-rule="evenodd" d="M28.4642 93.054L34.4717 94.3108C39.2727 87.5212 59.3533 59.6895 61.7568 46.5936L48.332 46.3238C40.9963 55.6782 33.0493 86.1462 28.4642 93.054Z" fill="#FCCD04"/>
<path fill-rule="evenodd" clip-rule="evenodd" d="M87.0289 33.2659L77.4299 33.3593L78.5968 37.7685L86.6336 35.7161C89.8941 36.4535 91.5001 36.576 91.4516 36.0835C91.4107 35.6683 91.0751 35.5024 90.766 35.3496C90.5252 35.2305 90.3004 35.1194 90.2436 34.9046C90.1137 34.4139 91.3083 33.5806 92.4757 32.8383C93.643 32.096 92.9533 31.846 92.5054 31.8029C90.8733 31.9728 89.0478 32.4605 87.0289 33.2659ZM77.9917 56.3133L72.1403 48.7034L69.3212 52.2888L75.7969 57.4721C77.1703 60.5199 78.039 61.8762 78.4031 61.5411C78.71 61.2585 78.6406 60.8907 78.5766 60.5518C78.5268 60.2879 78.4803 60.0415 78.6176 59.8668C78.9313 59.4679 80.3157 59.9204 81.6111 60.4059C82.9065 60.8915 82.6911 60.1902 82.4559 59.8066C81.338 58.6054 79.8499 57.4409 77.9917 56.3133Z" fill="#ECC096"/>
<path fill-rule="evenodd" clip-rule="evenodd" d="M64.8532 30.6628C66.7149 39.3814 70.892 46.8612 77.6348 55.332L73.3732 58.0239C64.9195 51.7599 60.535 48.1879 60.1446 40.3469C60.0466 38.379 61.268 32.5499 61.7678 29.4415L64.8532 30.6628Z" fill="#FCCD04"/>
<path fill-rule="evenodd" clip-rule="evenodd" d="M46.2574 52.5289L64.1977 57.7245C64.1977 57.7245 63.4861 37.3684 65.3605 30.4018C65.4242 30.1651 65.1094 29.6242 64.9013 29.6228C62.6181 29.6076 60.5135 27.8689 60.5135 27.8689C54.2794 33.4774 50.3696 41.4731 46.2574 52.5289Z" fill="#EDF5E1"/>
<path fill-rule="evenodd" clip-rule="evenodd" d="M61.991 39.608C61.3121 52.4387 58.3335 62.2402 52.1474 60.4487L42.5817 57.6783C44.0194 47.0282 52.1122 34.028 57.8819 27.9596C58.1022 27.7279 58.552 27.301 59.2609 27.5063L62.0404 28.3113C62.0406 28.3153 62.0407 28.3193 62.0409 28.3233C62.8753 28.5724 63.7876 28.8698 64.7755 29.1918C69.8615 30.8495 76.9531 33.161 85.7594 32.9077L85.3346 37.9297C76.7077 40.5007 68.2945 41.9913 61.991 39.608Z" fill="#FCCD04"/>
<ellipse cx="13.686" cy="100.31" rx="13.1791" ry="0.751397" transform="rotate(-0.495111 13.686 100.31)" fill="#C4C4C4"/>
</svg>
