<svg width="1440" height="1286" viewBox="0 0 1440 1286" fill="none" xmlns="http://www.w3.org/2000/svg">
<g clip-path="url(#clip0)">
<rect width="1440" height="1286" fill="white"/>
<path d="M385.173 -640L-133.639 1731.87L-166 1818L1146.69 1785.64L1606 -640H385.173Z" fill="#23E06E" stroke="#23E06E"/>
<path fill-rule="evenodd" clip-rule="evenodd" d="M127.57 483.483C130.496 485.883 133.509 487.272 135.04 487.103C138.879 486.678 141.156 473.124 139.055 467.348C136.953 461.573 122.556 457.112 120.301 467.631C119.518 471.281 120.592 474.794 122.488 477.808L115.681 496.34L127.547 498.05L127.57 483.483Z" fill="#ECC096"/>
<path fill-rule="evenodd" clip-rule="evenodd" d="M133.17 460.193C131.643 459.71 127.457 458.926 126.68 458.814C126.184 458.742 125.63 458.779 125.401 458.279C125.214 457.869 125.392 457.248 125.382 456.803C125.371 456.286 125.323 455.77 125.274 455.256C125.135 453.791 124.811 452.37 124.269 451.002C123.253 448.435 121.534 446.292 119.184 444.85C116.589 443.258 113.499 442.533 110.49 442.347C107.27 442.147 104.239 442.787 101.092 443.347C98.0938 443.88 95.0413 443.82 92.1119 442.927C89.1604 442.026 87.114 440.055 84.7905 438.129C82.4119 436.158 79.5826 434.685 76.468 434.481C73.5605 434.29 70.7405 435.101 68.136 436.351C65.6991 437.52 63.6082 439.049 62.2126 441.423C60.7113 443.976 60.2882 446.956 61.7801 449.619C63.9425 453.479 68.7479 455.089 72.865 455.591C75.2464 455.882 77.64 455.783 79.994 455.314C83.1335 454.689 85.9713 453.272 88.9745 452.223C90.3838 451.731 91.82 451.367 93.2993 451.169C94.7348 450.977 96.1193 450.993 97.2494 452.01C98.445 453.086 99.5054 454.126 100.938 454.899C102.313 455.639 103.807 456.158 105.354 456.369C108.364 456.779 111.461 456.265 114.471 456.056C116.925 455.886 119.546 455.741 121.903 456.585C122.887 456.937 124.306 457.575 124.522 458.685C118.204 458.919 114.697 466.217 115.634 472.082C116.139 475.247 121.267 479.601 123.684 478.323C125.215 477.514 124.561 476.068 124.141 475.115C123.335 473.289 123.284 471.086 125.382 470.199C127.191 469.433 128.603 472.074 128.636 472.076C129.1 472.106 133.376 470.429 136.569 467.543C139.236 468.09 139.897 466.368 139.463 464.82C139.028 463.271 135.28 460.86 133.17 460.193Z" fill="#191847"/>
<path fill-rule="evenodd" clip-rule="evenodd" d="M98.097 527.39C98.6998 538.808 151.621 573.454 151.915 574.402C152.11 575.034 134.434 613.764 134.434 613.764L139.083 615.686C139.083 615.686 165.822 574.83 164.58 570.394C162.802 564.044 123.83 528.028 123.83 528.028L98.097 527.39Z" fill="#ECC096"/>
<path fill-rule="evenodd" clip-rule="evenodd" d="M135.786 607.907L143.379 610.856C159.875 592.907 166.501 577.956 165.502 570.25C164.504 562.545 124.895 527.956 124.895 527.956L97.5483 527.407C97.9506 553.83 147.234 574.409 147.876 575.547C148.517 576.686 141.757 587.575 135.786 607.907Z" fill="#1C6D33"/>
<path fill-rule="evenodd" clip-rule="evenodd" d="M134.967 613.617C134.08 612.848 132.718 612.813 131.993 613.733C131.523 614.331 131.073 614.974 130.89 615.448C130.439 616.617 129.963 619.011 129.963 619.011C131.313 619.535 154.238 628.44 154.238 628.44C154.238 628.44 156.394 625.666 154.452 624.624C152.51 623.581 151.239 622.856 151.239 622.856L142.295 613.818C141.897 613.416 141.248 613.423 140.86 613.832L139.836 614.915C139.836 614.915 137.608 615.066 136.428 614.607C135.988 614.437 135.459 614.043 134.967 613.617Z" fill="#E4E4E4"/>
<path fill-rule="evenodd" clip-rule="evenodd" d="M104.26 527.514L79.2274 584.589L54.7834 632.776L60.3198 632.887L123.027 527.891L104.26 527.514Z" fill="#ECC096"/>
<path fill-rule="evenodd" clip-rule="evenodd" d="M56.8704 630.493C55.7741 630.075 54.4811 630.51 54.1131 631.624C53.8746 632.346 53.6709 633.105 53.6607 633.613C53.6355 634.866 54.003 637.279 54.003 637.279C55.4508 637.308 80.0267 637.802 80.0267 637.802C80.0267 637.802 81.1088 634.455 78.9286 634.143C76.7485 633.83 75.3073 633.585 75.3073 633.585L63.824 628.165C63.3135 627.924 62.7048 628.153 62.4799 628.671L61.8856 630.04C61.8856 630.04 59.8433 630.947 58.5783 630.921C58.1081 630.912 57.4773 630.725 56.8704 630.493Z" fill="#E4E4E4"/>
<path fill-rule="evenodd" clip-rule="evenodd" d="M57.1053 622.71L69.3606 625.274C79.1546 611.423 120.119 554.646 125.022 527.931L97.6356 527.38C82.6709 546.463 66.4589 608.618 57.1053 622.71Z" fill="#A7F543"/>
<path fill-rule="evenodd" clip-rule="evenodd" d="M176.578 500.742L156.996 500.933L159.377 509.928L175.772 505.741C182.423 507.245 185.699 507.495 185.6 506.49C185.517 505.643 184.832 505.305 184.202 504.993C183.71 504.75 183.252 504.524 183.136 504.085C182.871 503.084 185.308 501.384 187.689 499.87C190.071 498.356 188.664 497.846 187.75 497.758C184.421 498.105 180.697 499.099 176.578 500.742ZM158.142 547.759L146.205 532.235L140.454 539.549L153.665 550.123C156.467 556.341 158.239 559.108 158.981 558.424C159.608 557.847 159.466 557.097 159.335 556.406C159.234 555.867 159.139 555.365 159.419 555.008C160.059 554.194 162.883 555.118 165.526 556.108C168.168 557.099 167.729 555.668 167.249 554.885C164.969 552.435 161.933 550.06 158.142 547.759Z" fill="#ECC096"/>
<path fill-rule="evenodd" clip-rule="evenodd" d="M131.34 495.432C135.137 513.218 143.659 528.477 157.414 545.757L148.72 551.249C131.475 538.47 122.53 531.183 121.734 515.188C121.534 511.173 124.026 499.282 125.045 492.941L131.34 495.432Z" fill="#FF9B21"/>
<path fill-rule="evenodd" clip-rule="evenodd" d="M93.4039 540.039L130.002 550.638C130.002 550.638 128.55 509.112 132.374 494.9C132.504 494.417 131.862 493.313 131.437 493.311C126.78 493.28 122.486 489.733 122.486 489.733C109.769 501.174 101.793 517.485 93.4039 540.039Z" fill="#F2F2F2"/>
<path fill-rule="evenodd" clip-rule="evenodd" d="M125.501 513.68C124.116 539.855 118.04 559.85 105.42 556.195L85.9062 550.544C88.8391 528.817 105.348 502.297 117.119 489.918C117.568 489.445 118.486 488.574 119.932 488.993L125.602 490.635C125.602 490.643 125.603 490.651 125.603 490.66C127.305 491.168 129.166 491.774 131.182 492.431C141.557 495.813 156.024 500.528 173.989 500.012L173.122 510.256C155.523 515.501 138.36 518.542 125.501 513.68Z" fill="#FF9B21"/>
<ellipse cx="26.9591" cy="637.512" rx="26.8853" ry="1.53285" transform="rotate(-0.495111 26.9591 637.512)" fill="#C4C4C4"/>
</g>
<defs>
<clipPath id="clip0">
<rect width="1440" height="1286" fill="white"/>
</clipPath>
</defs>
</svg>
