<svg width="509" height="855" viewBox="0 0 509 855" fill="none" xmlns="http://www.w3.org/2000/svg">
<g filter="url(#filter0_d)">
<rect x="27" y="388.722" width="414.682" height="389.222" rx="192" transform="rotate(-1.20518 27 388.722)" fill="#23E06E"/>
<rect x="29.0416" y="390.679" width="410.682" height="385.222" rx="190" transform="rotate(-1.20518 29.0416 390.679)" stroke="#23E06E" stroke-width="4"/>
</g>
<path fill-rule="evenodd" clip-rule="evenodd" d="M130.168 251.235C136.766 253.598 142.891 254.148 145.463 252.901C151.913 249.775 147.52 224.743 140.277 215.985C133.035 207.227 105.111 208.401 107.667 228.129C108.554 234.977 112.601 240.431 117.778 244.505L117.326 281.024L139.128 276.631L130.168 251.235Z" fill="#ECC096"/>
<path fill-rule="evenodd" clip-rule="evenodd" d="M129.511 207.027C126.349 206.718 121.962 207.281 120.185 207.856C120.72 205.166 120.573 202.319 119.696 199.695C118.844 197.145 117.227 195.154 115.677 193.038C114.963 192.063 114.183 191.107 113.176 190.453C112.15 189.788 110.954 189.453 109.763 189.418C108.545 189.383 107.332 189.651 106.216 190.131C105.722 190.343 105.307 190.672 104.827 190.905C104.337 191.144 104.02 190.87 103.578 190.62C102.514 190.017 101.108 189.897 99.9335 189.989C98.6162 190.092 97.3209 190.555 96.1797 191.226C95.069 191.878 94.0569 192.778 93.3901 193.926C93.0932 194.437 92.8439 195.001 92.727 195.592C92.6791 195.834 92.6904 195.97 92.4839 196.096C92.2929 196.214 92.0521 196.265 91.8538 196.38C89.936 197.492 88.4969 199.438 87.9504 201.675C87.6316 202.979 87.7897 205.132 88.3362 207.47C88.8828 209.807 92.2424 215.518 94.6789 217.357C96.8537 218.998 99.7243 219.792 102.354 219.863C101.07 222.108 100.44 224.717 100.108 227.308C99.7464 230.122 99.7459 232.971 100.104 235.802C100.444 238.491 100.991 241.297 102.135 243.766C103.204 246.074 104.847 247.814 107.175 248.658C108.241 249.045 109.351 249.273 110.459 249.463C111.551 249.651 112.643 249.826 113.749 249.832C115.84 249.843 118.14 249.305 119.364 247.394C119.806 246.705 120.273 245.857 120.538 245.07C120.633 244.788 120.688 244.604 120.46 244.392C120.188 244.139 119.797 243.981 119.477 243.804C117.651 242.795 116.33 241.224 115.664 239.174C114.988 237.095 115.006 234.231 116.887 232.885C119.21 231.224 122.288 231.974 124.805 232.744C125.083 229.142 126.445 225.676 129.236 223.487C132.323 221.066 136.224 220.069 139.456 217.875C140.298 217.303 141.146 216.675 141.665 215.751C141.882 215.365 142.128 214.871 142.153 214.413C142.186 213.811 141.721 213.406 141.346 213.017C139.36 210.958 132.673 207.335 129.511 207.027Z" fill="#191847"/>
<path fill-rule="evenodd" clip-rule="evenodd" d="M257.333 423.634C263.098 434.796 276.039 455.547 292.872 478.981L303.282 473.523C281.653 416.153 265.687 378.503 258.665 367.48C254.026 360.196 231.156 365.768 237.01 381.124C239.465 387.564 247.462 404.521 257.333 423.634ZM203.407 390.779C186.124 398.153 151.39 418.907 141.562 425.283C135.386 429.29 141.527 437.422 147.093 435.481C148.036 435.152 151.389 434.076 156.392 432.472C172.461 427.319 205.554 416.707 230.487 407.834C243.615 403.163 231.235 379.284 217.737 384.795C213.196 386.649 208.373 388.66 203.407 390.779Z" fill="#ECC096"/>
<path fill-rule="evenodd" clip-rule="evenodd" d="M258.024 360.643C254.966 354.993 166.834 350.509 166.834 350.509L159.965 351.893L161.256 358.299L224.948 376.085C225.062 377.05 225.312 378.044 225.711 379.065C229.69 400.963 242.303 415.379 254.791 429.653C262.958 438.987 271.071 448.259 276.68 459.523L297.264 452.079C296.327 450.621 293.912 443.684 290.61 434.2C282.285 410.286 268.32 370.176 258.192 360.86C258.156 360.828 258.12 360.796 258.084 360.764C258.065 360.723 258.045 360.683 258.024 360.643Z" fill="#3E9F42"/>
<path fill-rule="evenodd" clip-rule="evenodd" d="M175.505 404.233C170.007 404.239 164.949 404.275 160.637 404.383C132.785 405.082 122.037 392.252 120.34 359.877L169.904 349.89C178.47 350.586 224.105 359.765 247.829 364.758C263.53 368.063 263.491 391.389 256.483 398.869C256.511 399.236 256.413 399.508 256.172 399.67C227.742 418.788 201.094 423.159 183.981 425.965C176.814 427.141 171.32 428.042 168.068 429.637L159.265 413.737L175.505 404.233Z" fill="#3E9F42"/>
<path fill-rule="evenodd" clip-rule="evenodd" d="M147.09 423.415C146.809 422.278 145.658 421.555 144.543 421.909C142.661 422.506 140.006 423.455 138.79 424.386C136.798 425.909 133.485 429.495 133.485 429.495C135.252 431.807 165.231 471.052 165.231 471.052C165.231 471.052 171.819 468.579 169.58 464.763C167.341 460.947 165.921 458.375 165.921 458.375L159.786 432.553C159.656 432.005 159.099 431.672 158.555 431.818L154.67 432.858C154.67 432.858 150.696 430.779 149.153 428.759C148.24 427.565 147.524 425.172 147.09 423.415Z" fill="#E4E4E4"/>
<path fill-rule="evenodd" clip-rule="evenodd" d="M289.083 473.779C287.938 473.533 286.782 474.251 286.611 475.41C286.324 477.364 286.013 480.168 286.316 481.67C286.811 484.129 288.58 488.681 288.58 488.681C291.431 488.107 339.816 478.357 339.816 478.357C339.816 478.357 340.482 471.348 336.073 471.688C331.664 472.028 328.732 472.177 328.732 472.177L302.852 466.368C302.302 466.245 301.759 466.6 301.651 467.153L300.883 471.103C300.883 471.103 297.275 473.766 294.784 474.268C293.313 474.564 290.851 474.16 289.083 473.779Z" fill="#E4E4E4"/>
<path fill-rule="evenodd" clip-rule="evenodd" d="M238.653 345.152L205.386 329.697L202.173 346.833L233.267 352.959C243.305 360.863 248.644 363.925 249.285 362.146C249.825 360.645 248.94 359.521 248.125 358.486C247.489 357.679 246.896 356.926 247.053 356.091C247.41 354.184 252.899 353.272 258.145 352.628C263.391 351.985 261.422 349.988 259.947 349.103C254.038 347.007 246.94 345.69 238.653 345.152ZM94.2534 413.291C95.8265 407.35 94.2784 352.85 94.2784 352.85L113.277 349.1C113.277 349.1 107.139 409.44 106.438 413.198C105.528 418.079 109.942 424.015 112.935 428.04C113.398 428.663 113.827 429.24 114.197 429.76C111.55 431.649 109.835 430.356 108.027 428.993C105.985 427.453 103.824 425.824 100.068 428.589C98.6167 429.658 97.2788 430.844 95.9718 432.004C91.4569 436.009 87.3093 439.689 80.1227 437.03C78.9834 436.609 77.3983 434.477 79.7102 432.096C85.4699 426.162 93.4844 416.195 94.2534 413.291Z" fill="#ECC096"/>
<path fill-rule="evenodd" clip-rule="evenodd" d="M132.164 262.267L139.748 259.336C173.969 278.658 195.693 324.648 236.584 343.09L230.134 355.488C166.612 360.297 139.354 304.354 132.164 262.267Z" fill="#A7F543"/>
<path fill-rule="evenodd" clip-rule="evenodd" d="M117.827 367.951C117.827 367.951 165.071 358.432 187.33 353.946C190.506 353.306 188.983 348.838 188.057 346.615C177.373 320.956 150.885 296.314 143.219 258.27L122.537 259.163C111.332 289.193 112.218 323.207 117.827 367.951Z" fill="white"/>
<path fill-rule="evenodd" clip-rule="evenodd" d="M104.831 289.703C101.13 290.177 97.53 289.313 94.6913 285.974C84.6976 274.219 85.8761 266.401 93.2245 262.429C97.2653 260.245 101.496 260.327 106.561 260.426C110.707 260.507 115.411 260.599 121.027 259.468C121.571 259.358 122.074 259.295 122.537 259.274L129.266 258.313C129.266 258.313 174.734 344.476 168.795 377.546L113.858 388.616C112.247 396.753 110.504 403.921 108.632 409.534L93.7256 412.538C81.6662 360.971 93.2524 317.088 104.831 289.703Z" fill="#A7F543"/>
<path fill-rule="evenodd" clip-rule="evenodd" d="M113.858 388.616C115.972 377.94 117.858 365.595 119.51 352.907C123.65 365.679 128.804 378.308 134.391 384.479L113.858 388.616Z" fill="black" fill-opacity="0.1"/>
<path fill-rule="evenodd" clip-rule="evenodd" d="M256.375 190.169C283.613 232.957 311.838 211.12 347.526 180.064C383.214 149.008 430.746 120.973 403.508 78.1849C376.269 35.3971 307.362 25.4071 271.674 56.4632C235.986 87.5193 229.136 147.381 256.375 190.169Z" fill="#FF9B21" fill-opacity="0.38"/>
<defs>
<filter id="filter0_d" x="-19.0051" y="364.995" width="514.786" height="489.868" filterUnits="userSpaceOnUse" color-interpolation-filters="sRGB">
<feFlood flood-opacity="0" result="BackgroundImageFix"/>
<feColorMatrix in="SourceAlpha" type="matrix" values="0 0 0 0 0 0 0 0 0 0 0 0 0 0 0 0 0 0 127 0"/>
<feOffset dy="31"/>
<feGaussianBlur stdDeviation="25"/>
<feColorMatrix type="matrix" values="0 0 0 0 0 0 0 0 0 0 0 0 0 0 0 0 0 0 0.25 0"/>
<feBlend mode="normal" in2="BackgroundImageFix" result="effect1_dropShadow"/>
<feBlend mode="normal" in="SourceGraphic" in2="effect1_dropShadow" result="shape"/>
</filter>
</defs>
</svg>
