<svg width="1075" height="718" viewBox="0 0 1075 718" fill="none" xmlns="http://www.w3.org/2000/svg">
<path fill-rule="evenodd" clip-rule="evenodd" d="M436.702 623.24C392.996 684.901 117.461 671.976 33.1252 591.114C-51.2102 510.253 46.7373 332.26 133.611 332.762C220.486 333.265 219.788 453.818 255.404 489.43C291.02 525.041 480.408 561.58 436.702 623.24Z" fill="#23E06E" fill-opacity="0.22"/>
<path fill-rule="evenodd" clip-rule="evenodd" d="M900.374 205.606C927.613 248.394 955.838 226.556 991.526 195.5C1027.21 164.444 1074.75 136.409 1047.51 93.6216C1020.27 50.8339 951.362 40.8439 915.674 71.9C879.986 102.956 873.136 162.818 900.374 205.606Z" fill="#FF9B21" fill-opacity="0.38"/>
<g filter="url(#filter0_d)">
<rect x="90.0001" y="247.931" width="856.148" height="392.923" rx="37" transform="rotate(-9 90.0001 247.931)" fill="#23E06E"/>
<rect x="92.2883" y="249.594" width="852.148" height="388.923" rx="35" transform="rotate(-9 92.2883 249.594)" stroke="#23E06E" stroke-width="4"/>
</g>
<path fill-rule="evenodd" clip-rule="evenodd" d="M162.966 80.2221C169.224 83.3779 175.235 84.6762 177.941 83.7553C184.726 81.4459 183.442 56.0637 177.331 46.482C171.22 36.9002 143.363 34.6327 143.475 54.5261C143.514 61.4305 146.86 67.3413 151.497 72.02L146.56 108.207L168.737 106.527L162.966 80.2221Z" fill="#ECC096"/>
<path fill-rule="evenodd" clip-rule="evenodd" d="M167.747 36.2679C164.647 35.5728 160.225 35.5925 158.39 35.9449C159.252 33.3413 159.456 30.4978 158.908 27.7858C158.376 25.1506 157.016 22.9755 155.738 20.6851C155.148 19.6294 154.492 18.5848 153.573 17.8128C152.637 17.0262 151.491 16.547 150.314 16.3662C149.109 16.1811 147.872 16.2978 146.705 16.637C146.189 16.7871 145.737 17.0628 145.232 17.2352C144.716 17.4118 144.435 17.1012 144.028 16.7985C143.046 16.0693 141.665 15.7772 140.488 15.7244C139.168 15.6652 137.826 15.9654 136.611 16.4903C135.428 17.0012 134.313 17.7698 133.511 18.8273C133.153 19.2981 132.836 19.827 132.648 20.3988C132.57 20.6335 132.565 20.7695 132.344 20.87C132.14 20.963 131.895 20.9838 131.684 21.0737C129.644 21.9419 127.977 23.6964 127.16 25.8487C126.683 27.1044 126.575 29.2598 126.83 31.6471C127.086 34.0344 129.718 40.1147 131.91 42.2391C133.866 44.1354 136.618 45.2761 139.219 45.6696C137.669 47.7395 136.723 50.2511 136.074 52.7816C135.37 55.5304 135.019 58.3576 135.027 61.2107C135.034 63.9214 135.232 66.7735 136.063 69.3639C136.841 71.7863 138.258 73.7145 140.464 74.8387C141.475 75.3537 142.548 75.7168 143.624 76.0415C144.685 76.3614 145.747 76.67 146.844 76.8115C148.918 77.0792 151.266 76.8284 152.717 75.0821C153.239 74.4526 153.807 73.6683 154.167 72.9205C154.296 72.6515 154.373 72.4762 154.173 72.238C153.933 71.9527 153.566 71.7481 153.27 71.5332C151.582 70.3079 150.464 68.5861 150.055 66.4702C149.639 64.3233 150.009 61.4837 152.042 60.379C154.551 59.0154 157.513 60.138 159.916 61.2115C160.635 57.6717 162.413 54.3988 165.451 52.5699C168.812 50.5465 172.807 50.0369 176.283 48.2559C177.189 47.7919 178.109 47.2733 178.737 46.42C178.999 46.0633 179.304 45.6034 179.386 45.1518C179.493 44.5587 179.081 44.0994 178.757 43.6679C177.039 41.3797 170.848 36.963 167.747 36.2679Z" fill="#191847"/>
<path fill-rule="evenodd" clip-rule="evenodd" d="M267.979 266.943C272.328 278.729 282.62 300.913 296.446 326.238L307.448 322.101C293.034 262.508 281.816 223.181 276.202 211.378C272.494 203.58 249.112 206.298 253.034 222.258C254.68 228.95 260.531 246.761 267.979 266.943ZM218.499 227.709C200.441 232.903 163.42 249.232 152.883 254.351C146.261 257.569 151.355 266.393 157.119 265.151C158.095 264.94 161.554 264.285 166.716 263.308C183.297 260.169 217.443 253.704 243.278 247.964C256.881 244.941 247.529 219.722 233.456 223.532C228.722 224.814 223.689 226.217 218.499 227.709Z" fill="#ECC096"/>
<path fill-rule="evenodd" clip-rule="evenodd" d="M276.406 204.514C274.066 198.531 187.153 183.249 187.153 183.249L180.166 183.779L180.66 190.295L241.683 215.774C241.678 216.746 241.803 217.763 242.074 218.825C243.331 241.046 254.077 256.904 264.716 272.604C271.674 282.871 278.586 293.07 282.768 304.938L304.111 300.08C303.36 298.518 301.816 291.337 299.705 281.519C294.381 256.763 285.453 215.241 276.546 204.751C276.515 204.714 276.483 204.678 276.451 204.642C276.437 204.599 276.422 204.557 276.406 204.514Z" fill="#3E9F42"/>
<path fill-rule="evenodd" clip-rule="evenodd" d="M189.156 237.632C183.698 236.962 178.675 236.376 174.382 235.954C146.655 233.224 137.565 219.171 139.86 186.833L190.276 183.013C198.691 184.756 242.852 199.475 265.782 207.345C280.959 212.555 278.053 235.699 270.179 242.261C270.161 242.628 270.03 242.887 269.772 243.018C239.208 258.497 212.224 259.559 194.896 260.241C187.639 260.527 182.076 260.746 178.652 261.93L171.871 245.068L189.156 237.632Z" fill="#3E9F42"/>
<path fill-rule="evenodd" clip-rule="evenodd" d="M158.598 253.176C158.46 252.014 157.406 251.154 156.256 251.369C154.315 251.73 151.563 252.346 150.242 253.12C148.078 254.386 144.35 257.538 144.35 257.538C145.818 260.049 170.748 302.681 170.748 302.681C170.748 302.681 177.59 301.038 175.836 296.975C174.083 292.912 172.99 290.186 172.99 290.186L170.076 263.805C170.014 263.245 169.502 262.847 168.944 262.925L164.961 263.48C164.961 263.48 161.272 260.928 159.989 258.734C159.23 257.436 158.813 254.973 158.598 253.176Z" fill="#E4E4E4"/>
<path fill-rule="evenodd" clip-rule="evenodd" d="M293.325 320.611C292.219 320.225 290.983 320.796 290.672 321.925C290.146 323.829 289.493 326.573 289.609 328.101C289.798 330.602 290.995 335.338 290.995 335.338C293.894 335.118 343.111 331.389 343.111 331.389C343.111 331.389 344.633 324.514 340.216 324.31C335.798 324.106 332.871 323.893 332.871 323.893L307.9 314.948C307.37 314.758 306.787 315.043 306.612 315.579L305.365 319.405C305.365 319.405 301.456 321.604 298.923 321.796C297.426 321.909 295.032 321.205 293.325 320.611Z" fill="#E4E4E4"/>
<path fill-rule="evenodd" clip-rule="evenodd" d="M259.086 186.76L227.971 167.334L222.676 183.945L252.781 193.846C261.771 202.924 266.694 206.619 267.549 204.932C268.269 203.509 267.529 202.285 266.847 201.157C266.316 200.278 265.82 199.458 266.078 198.649C266.667 196.8 272.226 196.569 277.511 196.575C282.796 196.582 281.088 194.358 279.733 193.299C274.126 190.492 267.244 188.313 259.086 186.76ZM107.407 236.635C109.698 230.932 114.86 176.656 114.86 176.656L134.175 175.269C134.175 175.269 120.668 234.397 119.511 238.04C118.007 242.773 121.658 249.206 124.133 253.569C124.516 254.244 124.871 254.869 125.174 255.431C122.315 256.98 120.772 255.486 119.146 253.911C117.309 252.132 115.365 250.25 111.297 252.532C109.725 253.414 108.252 254.427 106.812 255.418C101.839 258.838 97.2707 261.98 90.4653 258.458C89.3864 257.9 88.0754 255.589 90.6624 253.51C97.1077 248.33 106.286 239.423 107.407 236.635Z" fill="#ECC096"/>
<path fill-rule="evenodd" clip-rule="evenodd" d="M163.591 91.4158L171.477 89.439C203.065 112.82 218.971 161.131 257.286 184.459L249.361 195.971C185.729 192.936 165.554 134.067 163.591 91.4158Z" fill="#A7F543"/>
<path fill-rule="evenodd" clip-rule="evenodd" d="M136.373 194.537C136.373 194.537 184.429 190.895 207.071 189.18C210.302 188.935 209.34 184.313 208.694 181.993C201.245 155.216 177.985 127.505 175.053 88.8072L154.418 87.1522C139.607 115.577 136.307 149.442 136.373 194.537Z" fill="white"/>
<path fill-rule="evenodd" clip-rule="evenodd" d="M133.093 115.284C129.362 115.3 125.895 114 123.489 110.337C115.015 97.4434 117.146 89.8295 124.927 86.7903C129.205 85.1191 133.394 85.7212 138.408 86.4419C142.513 87.0318 147.17 87.7013 152.882 87.2684C153.436 87.2265 153.942 87.2255 154.405 87.2618L161.201 87.1355C161.201 87.1355 195.735 178.233 185.776 210.323L129.895 214.557C127.296 222.434 124.686 229.333 122.137 234.674L106.975 235.823C101.345 183.165 118.237 141.039 133.093 115.284Z" fill="#A7F543"/>
<path fill-rule="evenodd" clip-rule="evenodd" d="M129.895 214.557C133.305 204.221 136.694 192.202 139.893 179.813C142.432 192.998 145.994 206.163 150.781 212.974L129.895 214.557Z" fill="black" fill-opacity="0.1"/>
<defs>
<filter id="filter0_d" x="40.0001" y="95" width="1007.07" height="622.016" filterUnits="userSpaceOnUse" color-interpolation-filters="sRGB">
<feFlood flood-opacity="0" result="BackgroundImageFix"/>
<feColorMatrix in="SourceAlpha" type="matrix" values="0 0 0 0 0 0 0 0 0 0 0 0 0 0 0 0 0 0 127 0"/>
<feOffset dy="31"/>
<feGaussianBlur stdDeviation="25"/>
<feColorMatrix type="matrix" values="0 0 0 0 0 0 0 0 0 0 0 0 0 0 0 0 0 0 0.25 0"/>
<feBlend mode="normal" in2="BackgroundImageFix" result="effect1_dropShadow"/>
<feBlend mode="normal" in="SourceGraphic" in2="effect1_dropShadow" result="shape"/>
</filter>
</defs>
</svg>
