<svg width="1545" height="955" viewBox="0 0 1545 955" fill="none" xmlns="http://www.w3.org/2000/svg">
<g filter="url(#filter0_d)">
<path d="M284.775 21H1511.71C1516.93 21 1520.75 25.9159 1519.46 30.9732L1293.2 919.973C1292.3 923.518 1289.11 926 1285.45 926H32.5851C27.2764 926 23.4399 920.924 24.8888 915.817L277.079 26.8167C278.055 23.3751 281.198 21 284.775 21Z" fill="#FF9B21"/>
<path d="M284.775 21H1511.71C1516.93 21 1520.75 25.9159 1519.46 30.9732L1293.2 919.973C1292.3 923.518 1289.11 926 1285.45 926H32.5851C27.2764 926 23.4399 920.924 24.8888 915.817L277.079 26.8167C278.055 23.3751 281.198 21 284.775 21Z" stroke="#FF9B21"/>
</g>
<defs>
<filter id="filter0_d" x="0.0800781" y="0.5" width="1544.13" height="954" filterUnits="userSpaceOnUse" color-interpolation-filters="sRGB">
<feFlood flood-opacity="0" result="BackgroundImageFix"/>
<feColorMatrix in="SourceAlpha" type="matrix" values="0 0 0 0 0 0 0 0 0 0 0 0 0 0 0 0 0 0 127 0"/>
<feOffset dy="4"/>
<feGaussianBlur stdDeviation="12"/>
<feColorMatrix type="matrix" values="0 0 0 0 0 0 0 0 0 0 0 0 0 0 0 0 0 0 0.25 0"/>
<feBlend mode="normal" in2="BackgroundImageFix" result="effect1_dropShadow"/>
<feBlend mode="normal" in="SourceGraphic" in2="effect1_dropShadow" result="shape"/>
</filter>
</defs>
</svg>
