<svg width="253" height="329" viewBox="0 0 253 329" fill="none" xmlns="http://www.w3.org/2000/svg">
<path fill-rule="evenodd" clip-rule="evenodd" d="M113.145 61.4306C118.088 64.1563 122.889 65.3795 125.094 64.7183C130.624 63.0604 130.343 42.5906 125.708 34.6966C121.072 26.8026 98.716 24.1519 98.2166 40.1687C98.0433 45.7277 100.562 50.5848 104.155 54.4884L99.1096 83.4716L117.011 82.7761L113.145 61.4306Z" fill="#ECC096"/>
<path fill-rule="evenodd" clip-rule="evenodd" d="M118.296 26.1908C115.821 25.5394 112.26 25.4242 110.773 25.6535C111.544 23.5832 111.793 21.3004 111.432 19.1011C111.081 16.9641 110.051 15.1729 109.09 13.2913C108.647 12.4241 108.15 11.5637 107.433 10.9151C106.702 10.2542 105.794 9.83451 104.852 9.65407C103.887 9.46936 102.889 9.52666 101.939 9.76517C101.519 9.87067 101.147 10.0792 100.736 10.203C100.315 10.3299 100.098 10.0715 99.7792 9.81584C99.0102 9.19974 97.9073 8.92369 96.9618 8.8463C95.9009 8.75952 94.8115 8.96148 93.818 9.34795C92.8509 9.72418 91.9306 10.3099 91.2531 11.1373C90.9514 11.5057 90.6807 11.9221 90.5119 12.3768C90.4427 12.5634 90.4343 12.6727 90.2538 12.747C90.0869 12.8159 89.8889 12.8254 89.7164 12.8915C88.0486 13.5299 86.6544 14.8928 85.9328 16.6011C85.5119 17.5978 85.3614 19.3296 85.496 21.2589C85.6306 23.1882 87.5693 28.1605 89.2708 29.9356C90.7897 31.52 92.9705 32.5197 95.053 32.9135C93.7439 34.5338 92.9079 36.5275 92.3109 38.5453C91.6624 40.7371 91.2964 43.0025 91.218 45.2993C91.1435 47.4816 91.2182 49.7833 91.8107 51.8931C92.3649 53.8661 93.4483 55.4602 95.1911 56.4305C95.9894 56.875 96.8423 57.1991 97.6989 57.4923C98.5431 57.7812 99.3895 58.0612 100.268 58.2076C101.93 58.4846 103.827 58.3522 105.046 56.9895C105.486 56.4982 105.966 55.8837 106.278 55.2924C106.39 55.0797 106.457 54.9408 106.303 54.7432C106.119 54.5065 105.829 54.3309 105.597 54.1491C104.274 53.1128 103.426 51.6936 103.159 49.9783C102.888 48.2379 103.27 45.963 104.939 45.134C106.999 44.1107 109.35 45.1021 111.253 46.0374C111.936 43.2093 113.464 40.6274 115.964 39.2452C118.73 37.7161 121.96 37.4242 124.812 36.0936C125.555 35.7469 126.31 35.3567 126.841 34.6884C127.063 34.4091 127.322 34.0479 127.401 33.6868C127.505 33.2125 127.187 32.8306 126.939 32.4736C125.624 30.5808 120.771 26.8421 118.296 26.1908Z" fill="#191847"/>
<path fill-rule="evenodd" clip-rule="evenodd" d="M192.144 214.846C195.296 224.462 202.923 242.625 213.302 263.42L222.281 260.416C212.444 212.018 204.579 180.029 200.41 170.362C197.656 163.975 178.753 165.47 181.438 178.433C182.564 183.869 186.747 198.38 192.144 214.846ZM153.477 181.798C138.787 185.444 108.502 197.491 99.8689 201.3C94.443 203.694 98.2826 210.948 102.959 210.119C103.751 209.978 106.555 209.554 110.739 208.92C124.179 206.884 151.857 202.692 172.823 198.836C183.862 196.806 177.082 176.229 165.641 178.879C161.791 179.77 157.699 180.75 153.477 181.798Z" fill="#ECC096"/>
<path fill-rule="evenodd" clip-rule="evenodd" d="M200.777 164.843C199.071 159.957 129.562 145.081 129.562 145.081L123.922 145.3L124.126 150.559L172.493 172.877C172.46 173.659 172.531 174.482 172.717 175.345C173.071 193.269 181.251 206.353 189.35 219.306C194.646 227.776 199.908 236.191 202.923 245.868L220.247 242.59C219.689 241.311 218.659 235.485 217.25 227.519C213.699 207.434 207.742 173.745 200.883 165.037C200.859 165.007 200.834 164.976 200.81 164.946C200.8 164.912 200.789 164.877 200.777 164.843Z" fill="#34E3D9"/>
<path fill-rule="evenodd" clip-rule="evenodd" d="M129.563 188.916C125.189 188.215 121.163 187.595 117.72 187.127C95.4817 184.108 88.5809 172.527 91.3863 146.564L132.083 144.983C138.805 146.635 173.917 159.792 192.142 166.807C204.204 171.449 201.179 189.994 194.646 195.043C194.621 195.338 194.508 195.542 194.296 195.64C169.234 207.194 147.482 207.25 133.514 207.286C127.663 207.301 123.179 207.312 120.388 208.164L115.429 194.39L129.563 188.916Z" fill="#34E3D9"/>
<path fill-rule="evenodd" clip-rule="evenodd" d="M104.542 200.945C104.43 199.779 103.409 198.88 102.253 199.063C100.724 199.305 98.7729 199.697 97.7794 200.23C96.0005 201.186 92.9057 203.612 92.9057 203.612C94.0135 205.677 112.817 240.733 112.817 240.733C112.817 240.733 118.374 239.613 117.083 236.291C115.792 232.968 114.993 230.741 114.993 230.741L113.443 209.619C113.402 209.057 112.905 208.64 112.345 208.697L109.321 209.006C109.321 209.006 106.427 206.843 105.459 205.038C104.941 204.071 104.676 202.342 104.542 200.945Z" fill="#E4E4E4"/>
<path fill-rule="evenodd" clip-rule="evenodd" d="M211.352 258.948C210.255 258.537 208.998 259.061 208.656 260.182C208.203 261.663 207.7 263.589 207.743 264.716C207.822 266.735 208.645 270.583 208.645 270.583C210.985 270.492 250.713 268.948 250.713 268.948C250.713 268.948 252.142 263.459 248.593 263.164C245.043 262.869 242.692 262.611 242.692 262.611L223.043 254.745C222.52 254.535 221.927 254.799 221.732 255.328L220.684 258.183C220.684 258.183 217.473 259.838 215.428 259.917C214.333 259.96 212.665 259.44 211.352 258.948Z" fill="#E4E4E4"/>
<path fill-rule="evenodd" clip-rule="evenodd" d="M187.362 150.037L162.89 133.478L158.136 146.693L182.076 155.555C189.044 163.128 192.897 166.249 193.635 164.916C194.257 163.792 193.698 162.785 193.182 161.856C192.78 161.133 192.406 160.459 192.637 159.815C193.166 158.344 197.648 158.323 201.902 158.484C206.156 158.646 204.847 156.805 203.788 155.913C199.358 153.488 193.882 151.529 187.362 150.037ZM63.7871 185.691C65.8005 181.169 71.5637 137.631 71.5637 137.631L87.153 137.087C87.153 137.087 74.5286 184.283 73.4888 187.181C72.1381 190.946 74.8863 196.233 76.7498 199.818C77.0381 200.373 77.3052 200.886 77.5327 201.348C75.1854 202.51 73.9877 201.262 72.725 199.946C71.2988 198.459 69.7896 196.886 66.4476 198.603C65.1564 199.266 63.9402 200.039 62.752 200.793C58.6476 203.399 54.8772 205.792 49.5034 202.756C48.6515 202.275 47.6647 200.376 49.8087 198.779C55.1504 194.8 62.8028 187.902 63.7871 185.691Z" fill="#ECC096"/>
<path fill-rule="evenodd" clip-rule="evenodd" d="M113.316 70.4596L119.723 69.1019C144.457 88.859 155.83 128.219 185.98 148.132L179.26 157.164C128.129 152.836 113.633 104.85 113.316 70.4596Z" fill="#FCCD04"/>
<path fill-rule="evenodd" clip-rule="evenodd" d="M88.3517 152.662C88.3517 152.662 127.143 151.154 145.42 150.444C148.027 150.343 147.39 146.594 146.939 144.707C141.736 122.932 123.834 99.9366 122.62 68.6992L106.059 66.7557C93.2944 89.1977 89.6341 116.36 88.3517 152.662Z" fill="white"/>
<path fill-rule="evenodd" clip-rule="evenodd" d="M88.0592 88.7692C85.0557 88.6714 82.3034 87.5221 80.4746 84.5027C74.0359 73.8725 75.9764 67.8067 82.3298 65.5908C85.8235 64.3723 89.1774 64.981 93.1923 65.7097C96.4787 66.3062 100.208 66.9831 104.819 66.8039C105.266 66.7866 105.673 66.8007 106.044 66.8437L111.519 66.9434C111.519 66.9434 136.619 141.297 127.651 166.833L82.5438 168.585C80.2185 174.849 77.9124 180.326 75.703 184.549L63.4639 185.025C60.4919 142.47 75.3372 109.061 88.0592 88.7692Z" fill="#FCCD04"/>
<path fill-rule="evenodd" clip-rule="evenodd" d="M82.5438 168.585C85.5947 160.367 88.6788 150.792 91.6208 140.914C93.2741 151.603 95.7517 162.306 99.4029 167.93L82.5438 168.585Z" fill="black" fill-opacity="0.1"/>
</svg>
