<svg width="822" height="606" viewBox="0 0 822 606" fill="none" xmlns="http://www.w3.org/2000/svg">
<g filter="url(#filter0_d)">
<rect x="43" y="197.645" width="736" height="337.782" rx="31.8076" fill="#23E06E"/>
<rect x="44.7193" y="199.364" width="732.561" height="334.343" rx="30.0882" stroke="#23E06E" stroke-width="3.43866"/>
</g>
<path fill-rule="evenodd" clip-rule="evenodd" d="M251.116 62.8902C256.348 65.8763 261.452 67.2569 263.816 66.5859C269.743 64.9034 269.764 43.0554 264.941 34.5589C260.119 26.0624 236.303 22.8834 235.519 39.9674C235.247 45.8966 237.858 51.1192 241.632 55.3411L235.793 86.1906L254.907 85.729L251.116 62.8902Z" fill="#ECC096"/>
<path fill-rule="evenodd" clip-rule="evenodd" d="M257.165 25.3658C254.534 24.632 250.736 24.4532 249.146 24.6746C250.001 22.4775 250.302 20.0453 249.952 17.6928C249.611 15.4068 248.54 13.4793 247.544 11.4564C247.084 10.5239 246.567 9.59806 245.812 8.89461C245.043 8.17794 244.081 7.71587 243.078 7.50854C242.052 7.29632 240.985 7.34181 239.968 7.58145C239.519 7.68744 239.118 7.9041 238.677 8.0298C238.226 8.15859 237.999 7.87951 237.662 7.60165C236.851 6.93214 235.679 6.62028 234.671 6.52287C233.54 6.41364 232.375 6.61207 231.308 7.00891C230.271 7.39523 229.279 8.00579 228.543 8.87818C228.216 9.2665 227.92 9.70663 227.733 10.1892C227.656 10.3872 227.646 10.5037 227.452 10.5803C227.273 10.6511 227.061 10.6582 226.876 10.7259C225.086 11.3811 223.577 12.8136 222.78 14.6253C222.315 15.6823 222.128 17.5279 222.241 19.5888C222.355 21.6497 224.345 26.9862 226.133 28.907C227.729 30.6215 230.041 31.7226 232.257 32.1755C230.834 33.884 229.911 35.9984 229.243 38.1422C228.516 40.4709 228.09 42.8827 227.97 45.3324C227.857 47.66 227.9 50.1174 228.499 52.378C229.06 54.4921 230.191 56.2102 232.036 57.273C232.881 57.7598 233.786 58.119 234.695 58.4453C235.591 58.7669 236.49 59.0789 237.425 59.2489C239.194 59.5705 241.221 59.459 242.544 58.0239C243.02 57.5066 243.542 56.8584 243.884 56.2322C244.007 56.007 244.081 55.8599 243.92 55.6466C243.727 55.3911 243.42 55.1992 243.176 55.0016C241.781 53.8749 240.897 52.3472 240.639 50.5126C240.378 48.6511 240.821 46.2296 242.615 45.3711C244.829 44.3114 247.322 45.4062 249.338 46.4341C250.112 43.4269 251.783 40.6957 254.472 39.2599C257.448 37.6715 260.899 37.4107 263.963 36.0355C264.761 35.6771 265.574 35.2726 266.151 34.5677C266.392 34.2732 266.674 33.8918 266.764 33.5077C266.882 33.0032 266.549 32.5907 266.29 32.2059C264.916 30.1654 259.796 26.0997 257.165 25.3658Z" fill="#191847"/>
<path fill-rule="evenodd" clip-rule="evenodd" d="M333.012 227.84C336.225 238.151 344.079 257.652 354.829 280.006L364.457 276.941C354.718 225.141 346.827 190.882 342.53 180.5C339.691 173.641 319.497 174.941 322.159 188.816C323.275 194.634 327.511 210.185 333.012 227.84ZM292.268 191.968C276.535 195.628 244.029 208.009 234.756 211.939C228.929 214.408 232.912 222.209 237.915 221.398C238.762 221.26 241.762 220.851 246.236 220.24C260.61 218.279 290.212 214.239 312.645 210.453C324.457 208.46 317.544 186.395 305.294 189.044C301.172 189.935 296.789 190.916 292.268 191.968Z" fill="#ECC096"/>
<path fill-rule="evenodd" clip-rule="evenodd" d="M343.008 174.617C341.264 169.376 267.323 152.412 267.323 152.412L261.301 152.557L261.437 158.173L312.7 182.747C312.652 183.581 312.715 184.46 312.901 185.384C312.997 204.517 321.521 218.606 329.96 232.556C335.479 241.678 340.962 250.74 344.028 261.114L362.566 257.887C361.991 256.513 360.983 250.28 359.605 241.758C356.129 220.269 350.301 184.225 343.118 174.826C343.093 174.793 343.067 174.76 343.041 174.728C343.032 174.691 343.021 174.654 343.008 174.617Z" fill="#3E9F42"/>
<path fill-rule="evenodd" clip-rule="evenodd" d="M266.637 199.189C261.981 198.373 257.694 197.648 254.028 197.095C230.344 193.525 223.162 181.058 226.562 153.396L270.015 152.347C277.162 154.216 314.425 168.806 333.763 176.577C346.562 181.721 343.043 201.462 335.993 206.748C335.961 207.062 335.837 207.279 335.61 207.379C308.685 219.316 285.472 219.035 270.565 218.854C264.322 218.778 259.536 218.72 256.545 219.585L251.468 204.809L266.637 199.189Z" fill="#3E9F42"/>
<path fill-rule="evenodd" clip-rule="evenodd" d="M239.715 211.183C239.647 210.179 238.781 209.394 237.784 209.527C236.101 209.752 233.712 210.159 232.543 210.765C230.63 211.756 227.289 214.297 227.289 214.297C228.439 216.518 247.956 254.222 247.956 254.222C247.956 254.222 253.902 253.113 252.577 249.548C251.251 245.982 250.433 243.593 250.433 243.593L249.098 220.816C249.07 220.332 248.648 219.968 248.166 220.01L244.721 220.31C244.721 220.31 241.667 217.956 240.663 216.016C240.069 214.868 239.82 212.735 239.715 211.183Z" fill="#E4E4E4"/>
<path fill-rule="evenodd" clip-rule="evenodd" d="M352.398 275.036C351.466 274.657 350.38 275.092 350.062 276.048C349.527 277.659 348.845 279.986 348.876 281.303C348.929 283.458 349.746 287.577 349.746 287.577C352.245 287.516 394.664 286.492 394.664 286.492C394.664 286.492 396.275 280.657 392.492 280.287C388.708 279.916 386.204 279.604 386.204 279.604L365.162 270.819C364.715 270.633 364.202 270.852 364.028 271.305L362.788 274.534C362.788 274.534 359.335 276.249 357.152 276.302C355.862 276.333 353.838 275.623 352.398 275.036Z" fill="#E4E4E4"/>
<path fill-rule="evenodd" clip-rule="evenodd" d="M328.925 158.607L303.07 140.553L297.79 154.581L323.198 164.412C330.515 172.603 334.577 175.994 335.386 174.583C336.068 173.394 335.486 172.31 334.95 171.311C334.533 170.533 334.144 169.807 334.401 169.124C334.989 167.563 339.772 167.61 344.309 167.849C348.846 168.089 347.477 166.104 346.361 165.135C341.672 162.477 335.86 160.302 328.925 158.607ZM196.498 194.717C198.717 189.923 205.549 143.553 205.549 143.553L222.194 143.217C222.194 143.217 207.982 193.383 206.827 196.459C205.327 200.455 208.176 206.14 210.109 209.995C210.408 210.591 210.685 211.144 210.92 211.64C208.397 212.843 207.139 211.493 205.812 210.068C204.313 208.46 202.727 206.758 199.134 208.537C197.746 209.225 196.436 210.03 195.156 210.816C190.736 213.532 186.675 216.028 180.988 212.703C180.086 212.176 179.063 210.134 181.376 208.464C187.138 204.302 195.413 197.061 196.498 194.717Z" fill="#ECC096"/>
<path fill-rule="evenodd" clip-rule="evenodd" d="M251.157 72.528L258.015 71.1797C284.099 92.6505 295.618 134.83 327.48 156.553L320.168 166.085C265.672 160.665 250.956 109.232 251.157 72.528Z" fill="#A7F543"/>
<path fill-rule="evenodd" clip-rule="evenodd" d="M223.228 159.856C223.228 159.856 264.647 158.856 284.161 158.384C286.946 158.317 286.324 154.307 285.872 152.286C280.661 128.968 261.918 104.148 261.113 70.7955L243.47 68.4619C229.498 92.2101 225.166 121.138 223.228 159.856Z" fill="#FF9B21"/>
<path fill-rule="evenodd" clip-rule="evenodd" d="M216.781 176.757C214.201 183.405 211.655 189.213 209.231 193.685L196.163 194.001C193.658 148.544 210.024 113.124 223.918 91.6704C220.714 91.5189 217.795 90.2494 215.891 86.9987C209.187 75.5541 211.353 69.1116 218.167 66.8466C221.914 65.6011 225.484 66.3032 229.757 67.1438C233.253 67.8316 237.221 68.6121 242.142 68.4938C242.142 68.4938 242.142 68.4938 242.142 68.4938L242.142 68.4938C242.143 68.4938 242.145 68.4937 242.147 68.4937C242.624 68.4822 243.059 68.5037 243.454 68.5554L249.294 68.7476C249.294 68.7476 274.913 148.485 264.943 175.594L216.781 176.757Z" fill="#A7F543"/>
<path fill-rule="evenodd" clip-rule="evenodd" d="M216.781 176.757C220.166 168.035 223.607 157.866 226.901 147.371C228.498 158.803 230.974 170.263 234.782 176.322L216.781 176.757Z" fill="black" fill-opacity="0.1"/>
<defs>
<filter id="filter0_d" x="0.0167885" y="181.311" width="821.966" height="423.748" filterUnits="userSpaceOnUse" color-interpolation-filters="sRGB">
<feFlood flood-opacity="0" result="BackgroundImageFix"/>
<feColorMatrix in="SourceAlpha" type="matrix" values="0 0 0 0 0 0 0 0 0 0 0 0 0 0 0 0 0 0 127 0"/>
<feOffset dy="26.6496"/>
<feGaussianBlur stdDeviation="21.4916"/>
<feColorMatrix type="matrix" values="0 0 0 0 0 0 0 0 0 0 0 0 0 0 0 0 0 0 0.25 0"/>
<feBlend mode="normal" in2="BackgroundImageFix" result="effect1_dropShadow"/>
<feBlend mode="normal" in="SourceGraphic" in2="effect1_dropShadow" result="shape"/>
</filter>
</defs>
</svg>
