<svg width="332" height="395" viewBox="0 0 332 395" fill="none" xmlns="http://www.w3.org/2000/svg">
<path fill-rule="evenodd" clip-rule="evenodd" d="M129.503 93.7829C135.321 95.1284 140.56 94.9862 142.613 93.6761C147.762 90.3909 141.561 69.6403 134.563 62.9461C127.564 56.2519 104.047 60.0143 108.167 76.4587C109.597 82.166 113.563 86.3813 118.348 89.3154L121.588 120.269L139.605 114.389L129.503 93.7829Z" fill="#ECC096"/>
<path fill-rule="evenodd" clip-rule="evenodd" d="M124.562 56.4314C121.855 56.4837 118.198 57.3953 116.751 58.0583C116.937 55.7288 116.531 53.3337 115.528 51.1997C114.554 49.1262 112.988 47.6009 111.466 45.9639C110.765 45.2093 110.01 44.4775 109.093 44.0245C108.159 43.563 107.113 43.3983 106.102 43.487C105.067 43.5777 104.067 43.9245 103.17 44.4416C102.773 44.6703 102.454 44.9901 102.072 45.2349C101.68 45.4857 101.385 45.2854 100.986 45.1174C100.026 44.7125 98.8235 44.7503 97.8389 44.9448C96.7342 45.163 95.6839 45.6833 94.7845 46.3637C93.909 47.026 93.1417 47.888 92.6912 48.9259C92.4906 49.3879 92.3355 49.8899 92.2952 50.4014C92.2787 50.6113 92.3017 50.7249 92.1395 50.8528C91.9895 50.9711 91.7907 51.038 91.6343 51.155C90.1215 52.2867 89.0965 54.0765 88.8558 56.0236C88.7153 57.1595 89.0626 58.9654 89.757 60.8899C90.4515 62.8144 93.8613 67.3145 96.1058 68.6293C98.1093 69.8028 100.618 70.1901 102.851 69.9891C101.987 72.0164 101.712 74.2868 101.687 76.5128C101.661 78.9308 101.943 81.342 102.527 83.7021C103.082 85.9445 103.823 88.2653 105.035 90.2412C106.169 92.0889 107.733 93.3982 109.787 93.8821C110.727 94.1038 111.689 94.1871 112.646 94.238C113.588 94.2881 114.53 94.3284 115.466 94.2237C117.238 94.0253 119.131 93.3423 119.978 91.6032C120.283 90.9763 120.594 90.2121 120.74 89.5203C120.793 89.2715 120.821 89.1108 120.607 88.9541C120.352 88.7664 120.006 88.6715 119.717 88.5536C118.072 87.881 116.798 86.6821 116.031 85.0135C115.252 83.3205 114.983 80.8951 116.442 79.5692C118.243 77.9325 120.922 78.2621 123.129 78.6641C123.007 75.5886 123.817 72.5194 125.961 70.3904C128.334 68.0351 131.537 66.8046 134.055 64.6266C134.711 64.059 135.367 63.4436 135.714 62.6101C135.859 62.2617 136.018 61.8193 135.994 61.4291C135.963 60.9164 135.529 60.6196 135.173 60.328C133.288 58.7816 127.269 56.3791 124.562 56.4314Z" fill="#191847"/>
<path fill-rule="evenodd" clip-rule="evenodd" d="M254.228 227.083C260.215 235.959 273.225 252.239 289.797 270.403L298.066 264.751C274.07 218.34 256.823 188.058 249.787 179.424C245.138 173.72 226.334 180.704 232.812 193.12C235.528 198.327 243.978 211.886 254.228 227.083ZM205.329 204.624C191.432 212.579 164.093 233.59 156.408 239.961C151.577 243.965 157.581 250.238 162.1 248.043C162.866 247.671 165.597 246.429 169.672 244.575C182.761 238.62 209.717 226.356 229.94 216.374C240.588 211.118 227.741 192.136 216.864 198.139C213.204 200.158 209.322 202.338 205.329 204.624Z" fill="#ECC096"/>
<path fill-rule="evenodd" clip-rule="evenodd" d="M248.566 173.702C245.418 169.223 170.381 174.168 170.381 174.168L164.704 176.021L166.432 181.315L222.103 190.052C222.296 190.857 222.605 191.674 223.045 192.498C228.584 210.637 240.689 221.588 252.674 232.43C260.512 239.52 268.298 246.563 274.163 255.54L290.846 247.198C289.908 246.057 287.176 240.426 283.441 232.726C274.023 213.312 258.226 180.749 248.729 173.869C248.696 173.845 248.663 173.821 248.629 173.798C248.609 173.765 248.588 173.733 248.566 173.702Z" fill="#C5CFD6"/>
<path fill-rule="evenodd" clip-rule="evenodd" d="M183.048 218.778C178.395 219.329 174.118 219.861 170.479 220.38C146.975 223.734 136.606 213.941 131.959 186.709L172.918 173.34C180.237 173.08 219.771 176.323 240.345 178.196C253.962 179.435 256.242 199.182 251.053 206.208C251.113 206.515 251.057 206.756 250.869 206.916C228.703 225.917 206.582 232.259 192.377 236.331C186.428 238.037 181.867 239.345 179.273 241.018L170.246 228.433L183.048 218.778Z" fill="#C5CFD6"/>
<path fill-rule="evenodd" clip-rule="evenodd" d="M161.015 238.132C160.594 237.04 159.366 236.454 158.303 236.943C156.799 237.634 154.851 238.625 153.972 239.477C152.438 240.963 149.989 244.327 149.989 244.327C151.713 246.108 180.979 276.351 180.979 276.351C180.979 276.351 186.31 273.605 184.036 270.597C181.763 267.589 180.306 265.553 180.306 265.553L172.605 244.449C172.412 243.92 171.82 243.655 171.297 243.863L168.253 245.072C168.253 245.072 164.683 243.707 163.177 242.15C162.347 241.292 161.557 239.536 161.015 238.132Z" fill="#E4E4E4"/>
<path fill-rule="evenodd" clip-rule="evenodd" d="M286.394 266.405C285.227 266.305 284.162 267.152 284.135 268.323C284.097 269.979 284.134 272.165 284.514 273.329C285.177 275.361 287.126 279.038 287.126 279.038C289.482 278.269 329.467 265.219 329.467 265.219C329.467 265.219 329.335 259.22 325.637 259.945C321.939 260.671 319.473 261.087 319.473 261.087L297.143 258.754C296.583 258.695 296.085 259.111 296.042 259.673L295.796 262.941C295.796 262.941 293.006 265.552 290.948 266.224C289.814 266.594 287.892 266.534 286.394 266.405Z" fill="#E4E4E4"/>
<path fill-rule="evenodd" clip-rule="evenodd" d="M230.635 162.511L200.946 152.731L199.926 167.553L226.851 169.653C236.13 175.348 240.953 177.41 241.319 175.84C241.627 174.517 240.766 173.653 239.974 172.858C239.356 172.238 238.779 171.659 238.829 170.937C238.943 169.288 243.497 167.971 247.874 166.906C252.25 165.841 250.385 164.347 249.049 163.744C243.84 162.556 237.702 162.145 230.635 162.511ZM115.178 234.503C115.92 229.319 109.205 183.345 109.205 183.345L124.912 178.287C124.912 178.287 125.702 229.966 125.481 233.216C125.195 237.437 129.519 242.024 132.451 245.134C132.905 245.615 133.325 246.061 133.69 246.464C131.637 248.326 130.058 247.401 128.392 246.427C126.511 245.326 124.521 244.162 121.616 246.874C120.494 247.922 119.479 249.06 118.488 250.171C115.064 254.009 111.918 257.534 105.572 255.997C104.566 255.753 103.013 254.106 104.734 251.861C109.02 246.268 114.815 237.037 115.178 234.503Z" fill="#ECC096"/>
<path fill-rule="evenodd" clip-rule="evenodd" d="M132.286 102.922L138.414 99.6891C169.294 112.649 192.241 149.418 228.679 160.972L224.45 172.105C171.164 182.475 142.546 137.83 132.286 102.922Z" fill="#FCCD04"/>
<path fill-rule="evenodd" clip-rule="evenodd" d="M130.633 193.791C130.633 193.791 169.674 181.049 188.069 175.045C190.694 174.188 188.961 170.557 187.957 168.767C176.37 148.11 151.507 129.881 141.246 98.4423L123.83 101.25C117.325 127.777 121.448 156.477 130.633 193.791Z" fill="white"/>
<path fill-rule="evenodd" clip-rule="evenodd" d="M111.873 128.854C108.788 129.622 105.655 129.248 102.921 126.703C93.2974 117.746 93.5194 111.012 99.3449 106.921C102.548 104.671 106.137 104.322 110.434 103.903C113.951 103.561 117.941 103.172 122.582 101.657C123.032 101.51 123.451 101.407 123.841 101.343L129.441 99.863C129.441 99.863 176.469 168.279 174.722 196.858L129.323 211.675C128.767 218.721 128.002 224.961 126.974 229.898L114.656 233.918C99.3354 191.47 104.789 153.18 111.873 128.854Z" fill="#FCCD04"/>
<path fill-rule="evenodd" clip-rule="evenodd" d="M129.323 211.675C130.053 202.429 130.425 191.795 130.565 180.891C135.336 191.291 140.95 201.468 146.291 206.137L129.323 211.675Z" fill="black" fill-opacity="0.1"/>
</svg>
