<svg width="315" height="373" viewBox="0 0 315 373" fill="none" xmlns="http://www.w3.org/2000/svg">
<path fill-rule="evenodd" clip-rule="evenodd" d="M123.186 88.8681C128.686 90.1399 133.638 90.0055 135.579 88.7671C140.446 85.6617 134.585 66.047 127.969 59.7193C121.354 53.3915 99.1238 56.948 103.018 72.4922C104.37 77.8871 108.119 81.8716 112.642 84.6452L115.705 113.905L132.735 108.346L123.186 88.8681Z" fill="#ECC096"/>
<path fill-rule="evenodd" clip-rule="evenodd" d="M118.516 53.5613C115.957 53.6107 112.5 54.4725 111.133 55.0992C111.308 52.8972 110.924 50.6332 109.977 48.616C109.056 46.656 107.576 45.2142 106.137 43.6668C105.474 42.9535 104.76 42.2617 103.894 41.8335C103.011 41.3973 102.022 41.2416 101.066 41.3254C100.088 41.4112 99.1432 41.739 98.2951 42.2278C97.9199 42.444 97.6186 42.7463 97.2569 42.9777C96.8866 43.2147 96.6076 43.0254 96.2308 42.8666C95.3229 42.4839 94.1865 42.5196 93.2558 42.7034C92.2115 42.9097 91.2187 43.4016 90.3685 44.0447C89.541 44.6707 88.8157 45.4855 88.3899 46.4666C88.2003 46.9033 88.0536 47.3778 88.0155 47.8614C87.9999 48.0598 88.0216 48.1672 87.8683 48.288C87.7265 48.3999 87.5387 48.4631 87.3908 48.5737C85.9608 49.6435 84.9919 51.3353 84.7643 53.1758C84.6316 54.2495 84.9598 55.9566 85.6163 57.7758C86.2727 59.5949 89.4958 63.8487 91.6175 65.0915C93.5113 66.2008 95.8823 66.5668 97.9932 66.3769C97.1764 68.2931 96.9168 70.4393 96.8936 72.5434C96.8685 74.829 97.1351 77.1083 97.687 79.3392C98.2114 81.4588 98.9119 83.6526 100.058 85.5204C101.13 87.2669 102.608 88.5046 104.549 88.9619C105.439 89.1715 106.348 89.2503 107.252 89.2984C108.143 89.3457 109.033 89.3838 109.918 89.2848C111.593 89.0973 113.382 88.4516 114.183 86.8078C114.471 86.2152 114.765 85.4929 114.904 84.8389C114.953 84.6037 114.98 84.4518 114.778 84.3037C114.536 84.1263 114.209 84.0366 113.936 83.9251C112.381 83.2894 111.177 82.156 110.452 80.5788C109.716 78.9784 109.462 76.6859 110.841 75.4325C112.543 73.8854 115.076 74.1969 117.162 74.577C117.046 71.6698 117.812 68.7686 119.839 66.7562C122.082 64.5298 125.109 63.3667 127.489 61.3078C128.109 60.7713 128.729 60.1897 129.057 59.4018C129.195 59.0725 129.345 58.6543 129.322 58.2854C129.293 57.8008 128.882 57.5202 128.546 57.2446C126.764 55.7829 121.075 53.5119 118.516 53.5613Z" fill="#191847"/>
<path fill-rule="evenodd" clip-rule="evenodd" d="M241.084 214.872C246.743 223.261 259.041 238.65 274.706 255.82L282.522 250.477C259.84 206.607 243.537 177.983 236.886 169.822C232.492 164.43 214.717 171.031 220.84 182.768C223.408 187.689 231.395 200.506 241.084 214.872ZM194.862 193.642C181.726 201.162 155.883 221.022 148.618 227.045C144.053 230.829 149.728 236.759 153.999 234.684C154.723 234.333 157.304 233.158 161.156 231.406C173.529 225.776 199.01 214.184 218.125 204.748C228.19 199.78 216.047 181.837 205.765 187.511C202.306 189.42 198.636 191.481 194.862 193.642Z" fill="#ECC096"/>
<path fill-rule="evenodd" clip-rule="evenodd" d="M235.732 164.412C232.756 160.179 161.827 164.853 161.827 164.853L156.461 166.604L158.094 171.608L210.718 179.867C210.9 180.628 211.192 181.4 211.608 182.179C216.843 199.326 228.286 209.677 239.615 219.926C247.024 226.627 254.384 233.285 259.928 241.771L275.697 233.885C274.811 232.807 272.229 227.484 268.698 220.206C259.795 201.854 244.863 171.074 235.886 164.57C235.855 164.548 235.823 164.525 235.791 164.503C235.773 164.472 235.753 164.442 235.732 164.412Z" fill="#C5CFD6"/>
<path fill-rule="evenodd" clip-rule="evenodd" d="M173.801 207.021C169.402 207.542 165.359 208.045 161.92 208.535C139.702 211.706 129.901 202.449 125.508 176.707L164.225 164.07C171.143 163.824 208.513 166.89 227.961 168.66C240.833 169.832 242.988 188.497 238.083 195.139C238.14 195.43 238.086 195.657 237.909 195.809C216.956 213.769 196.046 219.764 182.619 223.614C176.995 225.226 172.684 226.462 170.232 228.043L161.699 216.148L173.801 207.021Z" fill="#C5CFD6"/>
<path fill-rule="evenodd" clip-rule="evenodd" d="M153.017 225.427C152.591 224.336 151.363 223.75 150.301 224.242C148.896 224.892 147.126 225.802 146.316 226.587C144.866 227.992 142.551 231.171 142.551 231.171C144.181 232.855 171.845 261.442 171.845 261.442C171.845 261.442 176.884 258.846 174.735 256.003C172.585 253.16 171.208 251.236 171.208 251.236L163.948 231.34C163.755 230.811 163.164 230.545 162.64 230.753L159.815 231.876C159.815 231.876 156.441 230.585 155.017 229.114C154.254 228.326 153.527 226.734 153.017 225.427Z" fill="#E4E4E4"/>
<path fill-rule="evenodd" clip-rule="evenodd" d="M271.608 252.051C270.441 251.955 269.375 252.803 269.352 253.974C269.32 255.523 269.362 257.513 269.712 258.586C270.339 260.506 272.182 263.983 272.182 263.983C274.408 263.256 312.204 250.92 312.204 250.92C312.204 250.92 312.08 245.25 308.584 245.935C305.089 246.621 302.757 247.015 302.757 247.015L281.706 244.814C281.146 244.756 280.648 245.172 280.605 245.734L280.377 248.766C280.377 248.766 277.739 251.235 275.794 251.87C274.752 252.21 273.006 252.166 271.608 252.051Z" fill="#E4E4E4"/>
<path fill-rule="evenodd" clip-rule="evenodd" d="M218.782 153.834L190.719 144.589L189.755 158.6L215.205 160.585C223.977 165.968 228.535 167.917 228.881 166.434C229.173 165.183 228.359 164.366 227.61 163.614C227.026 163.028 226.481 162.482 226.528 161.799C226.635 160.24 230.941 158.995 235.077 157.989C239.214 156.982 237.451 155.569 236.189 155C231.265 153.877 225.463 153.488 218.782 153.834ZM109.645 221.885C110.347 216.985 103.999 173.528 103.999 173.528L118.847 168.746C118.847 168.746 119.594 217.596 119.385 220.668C119.114 224.659 123.202 228.994 125.974 231.934C126.402 232.389 126.8 232.81 127.145 233.192C125.204 234.951 123.711 234.077 122.137 233.156C120.359 232.116 118.477 231.015 115.731 233.579C114.67 234.57 113.711 235.645 112.774 236.695C109.538 240.323 106.565 243.656 100.566 242.202C99.6147 241.972 98.1468 240.415 99.7731 238.293C103.825 233.006 109.302 224.281 109.645 221.885Z" fill="#ECC096"/>
<path fill-rule="evenodd" clip-rule="evenodd" d="M125.817 97.5069L131.609 94.451C160.799 106.701 182.49 141.458 216.933 152.379L212.936 162.903C162.567 172.705 135.515 130.504 125.817 97.5069Z" fill="#FCCD04"/>
<path fill-rule="evenodd" clip-rule="evenodd" d="M124.254 183.402C124.254 183.402 161.159 171.357 178.547 165.682C181.028 164.872 179.39 161.44 178.441 159.748C167.488 140.222 143.986 122.991 134.286 93.2724L117.824 95.9263C111.675 121.001 115.573 148.131 124.254 183.402Z" fill="white"/>
<path fill-rule="evenodd" clip-rule="evenodd" d="M106.522 122.019C103.606 122.745 100.644 122.391 98.0601 119.986C88.9628 111.519 89.1727 105.154 94.6792 101.287C97.7072 99.1603 101.1 98.8298 105.161 98.4342C108.485 98.1104 112.258 97.7429 116.645 96.3111C117.069 96.1724 117.465 96.0747 117.834 96.0146L123.128 94.6153C123.128 94.6153 167.582 159.286 165.93 186.3L123.017 200.307C122.491 206.967 121.768 212.865 120.796 217.532L109.152 221.332C94.6703 181.208 99.8257 145.014 106.522 122.019Z" fill="#FCCD04"/>
<path fill-rule="evenodd" clip-rule="evenodd" d="M123.017 200.307C123.707 191.567 124.058 181.515 124.19 171.208C128.7 181.039 134.007 190.659 139.056 195.072L123.017 200.307Z" fill="black" fill-opacity="0.1"/>
</svg>
