<svg width="199" height="282" viewBox="0 0 199 282" fill="none" xmlns="http://www.w3.org/2000/svg">
<path fill-rule="evenodd" clip-rule="evenodd" d="M96.6442 52.8111C92.4205 55.2698 88.29 56.4255 86.3676 55.8979C81.5468 54.575 81.3756 36.8536 85.2284 29.9279C89.0813 23.0022 108.381 20.2558 109.137 34.1075C109.4 38.9152 107.318 43.1699 104.286 46.6211L109.24 71.6022L93.7302 71.3625L96.6442 52.8111Z" fill="#ECC096"/>
<path fill-rule="evenodd" clip-rule="evenodd" d="M94.1933 22.0157C96.2427 21.7119 101.75 21.5663 102.765 21.5822C103.414 21.5922 104.115 21.7513 104.508 21.1614C104.83 20.6783 104.728 19.8512 104.83 19.2864C104.95 18.6303 105.115 17.9833 105.281 17.338C105.755 15.5019 106.457 13.7589 107.425 12.1272C109.242 9.06596 111.872 6.68673 115.167 5.32953C118.805 3.83097 122.9 3.53824 126.783 3.9136C130.938 4.3152 134.683 5.74738 138.591 7.10108C142.315 8.39104 146.228 8.93661 150.152 8.39541C154.106 7.8502 157.119 5.75742 160.477 3.77881C163.915 1.75319 167.829 0.454084 171.85 0.828761C175.604 1.17861 179.044 2.78475 182.12 4.90686C184.998 6.89234 187.361 9.26415 188.665 12.571C190.068 16.1283 190.006 20.0082 187.562 23.095C184.018 27.5694 177.552 28.6407 172.189 28.4414C169.087 28.3263 166.048 27.7125 163.135 26.6363C159.249 25.2011 155.909 22.8186 152.283 20.8715C150.581 19.9578 148.819 19.2017 146.969 18.6481C145.173 18.1107 143.401 17.8495 141.751 18.9142C140.006 20.0406 138.441 21.1494 136.453 21.8407C134.547 22.5039 132.533 22.8602 130.513 22.8134C126.584 22.7223 122.729 21.4374 118.925 20.5579C115.823 19.8409 112.503 19.1226 109.32 19.7167C107.992 19.9646 106.05 20.4888 105.55 21.8581C113.576 23.4419 116.584 33.4495 114.202 40.7252C112.916 44.6521 105.483 49.151 102.653 47.0324C100.86 45.6902 101.988 43.9819 102.718 42.854C104.116 40.694 104.626 37.8995 102.125 36.3419C99.9671 34.9986 97.6294 38.0734 97.5861 38.0693C96.9883 38.0128 91.8617 35.0066 88.3644 30.6814C84.846 30.8356 84.3485 28.5084 85.2172 26.6249C86.0858 24.7415 91.3617 22.4357 94.1933 22.0157Z" fill="#191847"/>
<path fill-rule="evenodd" clip-rule="evenodd" d="M120.92 125.46C119.509 141.354 43.7157 187.04 43.2574 188.347C42.9519 189.219 65.7676 244.107 65.7676 244.107L59.166 246.557C59.166 246.557 23.7706 188.253 25.7296 182.129C28.5342 173.361 84.8703 125.072 84.8703 125.072L120.92 125.46Z" fill="#ECC096"/>
<path fill-rule="evenodd" clip-rule="evenodd" d="M64.1683 235.871L53.3942 239.608C31.1966 213.757 22.6665 192.578 24.4468 181.882C26.2271 171.186 83.3851 124.919 83.3851 124.919L121.688 125.511C119.812 162.34 49.81 188.589 48.8551 190.145C47.9002 191.701 56.8213 207.221 64.1683 235.871Z"
  fill="#7E5BFF"/>
<path fill-rule="evenodd" clip-rule="evenodd" d="M65.6999 243.311C66.5811 242.54 67.9417 242.568 68.6609 243.492C69.4534 244.51 70.3479 245.774 70.6448 246.631C71.2173 248.284 71.7653 251.646 71.7653 251.646C69.8489 252.31 37.3206 263.589 37.3206 263.589C37.3206 263.589 34.4396 259.614 37.2097 258.256C39.9798 256.899 41.7943 255.951 41.7943 255.951L55.0649 243.508C55.476 243.123 56.1241 243.153 56.4974 243.575L58.1505 245.443C58.1505 245.443 61.2615 245.764 62.9357 245.184C63.7619 244.897 64.8299 244.073 65.6999 243.311Z" fill="#DDE3E9"/>
<path fill-rule="evenodd" clip-rule="evenodd" d="M112.289 125.327L144.489 206.164L176.307 274.576L168.553 274.456L86.003 124.921L112.289 125.327Z" fill="#ECC096"/>
<path fill-rule="evenodd" clip-rule="evenodd" d="M174.326 270.987C175.418 270.564 176.687 271.056 177.047 272.17C177.443 273.399 177.852 274.892 177.838 275.799C177.811 277.548 177.177 280.895 177.177 280.895C175.149 280.863 140.726 280.331 140.726 280.331C140.726 280.331 139.378 275.61 142.445 275.283C145.512 274.955 147.541 274.685 147.541 274.685L164.265 267.533C164.783 267.312 165.382 267.562 165.589 268.086L166.503 270.407C166.503 270.407 169.317 271.774 171.089 271.801C171.963 271.815 173.248 271.405 174.326 270.987Z" fill="#DDE3E9"/>
<path fill-rule="evenodd" clip-rule="evenodd" d="M173.557 260.424L156.277 263.39C143.257 243.588 88.7425 162.377 83.2074 124.877L121.567 125.47C141.564 152.825 161.166 240.307 173.557 260.424Z"
  fill="#9F85FF"/>
<path fill-rule="evenodd" clip-rule="evenodd" d="M31.1413 96.0727L54.3992 106.723L46.774 116.191L29.4439 102.468C20.7089 100.722 16.6677 99.2767 17.3203 98.1305C17.8706 97.164 18.8673 97.1244 19.7854 97.088C20.5006 97.0596 21.1681 97.0331 21.5397 96.5718C22.3882 95.5183 20.3857 92.1924 18.3505 89.1175C16.3153 86.0426 18.2652 86.1827 19.4019 86.5642C23.1892 88.7502 27.1024 91.9197 31.1413 96.0727ZM135.744 113.444L149.027 111.02C157.643 134.842 162.796 147.903 164.489 150.203C165.73 151.889 173.477 156.304 178.729 158.679C180.838 159.632 180.354 161.419 179.723 161.984C175.74 165.545 172.109 164.219 168.156 162.776C167.012 162.358 165.841 161.93 164.626 161.609C161.483 160.776 160.497 162.384 159.566 163.905C158.742 165.251 157.96 166.527 155.76 165.979C155.867 165.547 155.998 165.064 156.139 164.541C157.052 161.167 158.398 156.189 156.56 153.257C155.617 151.752 148.678 138.481 135.744 113.444Z"
  fill="#ECC096"/>
<path fill-rule="evenodd" clip-rule="evenodd" d="M100.557 60.6885L94.9831 59.6432C82.6288 71.2679 77.2231 99.571 69.0534 103.202C61.3293 106.635 50.5107 103.03 37.6597 98.1901L33.5655 106.975C45.1107 119.865 69.9588 130.989 80.1927 125.016C96.5547 115.467 100.838 80.5223 100.557 60.6885Z" fill="#FCCD04"/>
<path fill-rule="evenodd" clip-rule="evenodd" d="M123.832 131.326C123.832 131.326 90.2213 130.806 74.3855 130.561C72.126 130.527 72.6022 127.269 72.9543 125.627C77.0176 106.676 92.0491 86.4125 92.4672 59.3533L106.764 57.3362C118.268 76.5005 121.987 99.9342 123.832 131.326Z" fill="white"/>
<path fill-rule="evenodd" clip-rule="evenodd" d="M107.521 57.3479L107.684 57.3504C139.37 77.5677 158.231 108.44 164.267 149.967L153.872 151.838C147.13 143.73 138.859 130.502 129.06 112.155C131.983 123.161 134.068 134.435 134.608 145.073L90.0984 144.385C81.8185 122.467 102.037 57.2631 102.037 57.2631L105.11 57.3106L107.521 57.3479Z" fill="#FCCD04"/>
</svg>
