<svg width="199" height="282" viewBox="0 0 199 282" fill="none" xmlns="http://www.w3.org/2000/svg">
<path fill-rule="evenodd" clip-rule="evenodd" d="M265.215 166.197C259.995 169.236 254.89 170.665 252.514 170.013C246.555 168.378 246.344 146.474 251.106 137.914C255.868 129.354 279.721 125.959 280.657 143.08C280.981 149.022 278.408 154.281 274.66 158.547L280.784 189.423L261.614 189.127L265.215 166.197Z" fill="#ECC096"/>
<path fill-rule="evenodd" clip-rule="evenodd" d="M262.186 128.135C264.719 127.759 271.526 127.579 272.781 127.599C273.582 127.611 274.448 127.808 274.935 127.079C275.333 126.482 275.206 125.459 275.333 124.761C275.48 123.95 275.684 123.151 275.89 122.353C276.476 120.084 277.343 117.929 278.54 115.913C280.786 112.129 284.037 109.188 288.109 107.511C292.605 105.659 297.667 105.297 302.466 105.761C307.602 106.257 312.23 108.027 317.06 109.7C321.663 111.295 326.499 111.969 331.35 111.3C336.236 110.626 339.961 108.04 344.112 105.594C348.361 103.091 353.198 101.485 358.168 101.948C362.808 102.38 367.06 104.366 370.862 106.988C374.419 109.442 377.34 112.374 378.951 116.461C380.685 120.858 380.609 125.653 377.588 129.469C373.208 134.999 365.216 136.323 358.587 136.077C354.753 135.934 350.997 135.176 347.396 133.846C342.593 132.072 338.465 129.127 333.983 126.72C331.88 125.591 329.703 124.657 327.416 123.972C325.196 123.308 323.005 122.985 320.966 124.301C318.809 125.694 316.874 127.064 314.418 127.918C312.062 128.738 309.573 129.178 307.077 129.121C302.22 129.008 297.456 127.42 292.754 126.333C288.92 125.447 284.817 124.559 280.883 125.293C279.241 125.6 276.84 126.248 276.223 127.94C286.143 129.897 289.86 142.267 286.916 151.259C285.327 156.113 276.14 161.674 272.642 159.055C270.426 157.396 271.819 155.285 272.721 153.891C274.449 151.221 275.08 147.767 271.989 145.842C269.322 144.181 266.432 147.982 266.379 147.977C265.64 147.907 259.304 144.191 254.981 138.845C250.632 139.036 250.017 136.16 251.091 133.832C252.165 131.504 258.686 128.654 262.186 128.135Z" fill="#191847"/>
<path fill-rule="evenodd" clip-rule="evenodd" d="M295.22 255.991C293.476 275.635 199.797 332.102 199.231 333.718C198.853 334.796 227.053 402.636 227.053 402.636L218.893 405.664C218.893 405.664 175.145 333.602 177.566 326.032C181.033 315.196 250.663 255.511 250.663 255.511L295.22 255.991Z" fill="#ECC096"/>
<path fill-rule="evenodd" clip-rule="evenodd" d="M225.076 392.457L211.759 397.075C184.323 365.124 173.78 338.948 175.98 325.728C178.181 312.507 248.827 255.322 248.827 255.322L296.17 256.053C293.851 301.573 207.329 334.017 206.149 335.94C204.969 337.863 215.995 357.046 225.076 392.457Z" fill="#7E5BFF"/>
<path fill-rule="evenodd" clip-rule="evenodd" d="M227.353 401.311C228.221 400.525 229.581 400.556 230.311 401.472C231.355 402.785 232.673 404.58 233.081 405.757C233.788 407.799 234.465 411.954 234.465 411.954C232.097 412.775 191.892 426.716 191.892 426.716C191.892 426.716 188.332 421.802 191.755 420.125C195.179 418.448 197.422 417.275 197.422 417.275L214.001 401.73C214.412 401.345 215.06 401.375 215.434 401.797L217.638 404.287C217.638 404.287 221.483 404.685 223.552 403.967C224.699 403.57 226.222 402.334 227.353 401.311Z" fill="#DDE3E9"/>
<path fill-rule="evenodd" clip-rule="evenodd" d="M284.552 255.826L324.351 355.739L363.678 440.295L354.093 440.147L252.063 255.324L284.552 255.826Z" fill="#ECC096"/>
<path fill-rule="evenodd" clip-rule="evenodd" d="M361.706 435.67C362.79 435.229 364.058 435.724 364.43 436.834C364.964 438.425 365.588 440.563 365.569 441.808C365.535 443.969 364.751 448.105 364.751 448.105C362.245 448.067 319.699 447.409 319.699 447.409C319.699 447.409 318.033 441.574 321.824 441.169C325.614 440.764 328.123 440.43 328.123 440.43L349.016 431.495C349.534 431.274 350.133 431.524 350.34 432.048L351.559 435.143C351.559 435.143 355.037 436.832 357.227 436.866C358.44 436.885 360.293 436.245 361.706 435.67Z" fill="#DDE3E9"/>
<path fill-rule="evenodd" clip-rule="evenodd" d="M360.278 422.804L338.92 426.47C322.827 401.995 255.448 301.619 248.607 255.27L296.019 256.003C320.735 289.814 344.963 397.94 360.278 422.804Z" fill="#9B81FD"/>
<path fill-rule="evenodd" clip-rule="evenodd" d="M184.255 219.668L213.002 232.832L203.577 244.534L182.157 227.572C171.361 225.415 166.366 223.628 167.173 222.212C167.853 221.017 169.085 220.968 170.22 220.923C171.104 220.888 171.929 220.855 172.388 220.285C173.437 218.983 170.962 214.872 168.446 211.072C165.931 207.271 168.341 207.444 169.746 207.916C174.427 210.618 179.263 214.535 184.255 219.668ZM313.542 241.139L329.961 238.143C340.609 267.586 346.979 283.73 349.071 286.572C350.605 288.657 360.18 294.113 366.672 297.048C369.278 298.226 368.681 300.436 367.9 301.133C362.977 305.534 358.489 303.896 353.604 302.112C352.19 301.596 350.742 301.067 349.241 300.67C345.356 299.64 344.138 301.629 342.987 303.508C341.968 305.171 341.001 306.749 338.282 306.072C338.414 305.538 338.576 304.94 338.751 304.294C339.879 300.123 341.543 293.972 339.271 290.347C338.105 288.487 329.529 272.085 313.542 241.139Z" fill="#ECC096"/>
<path fill-rule="evenodd" clip-rule="evenodd" d="M270.052 175.934L263.163 174.642C247.893 189.01 241.212 223.992 231.114 228.48C221.567 232.723 208.196 228.268 192.312 222.285L187.252 233.144C201.521 249.076 232.233 262.824 244.882 255.442C265.105 243.639 270.399 200.448 270.052 175.934Z" fill="#9F85FF"/>
<path fill-rule="evenodd" clip-rule="evenodd" d="M298.82 263.24C298.82 263.24 257.278 262.598 237.705 262.296C234.912 262.253 235.501 258.226 235.936 256.197C240.958 232.774 259.537 207.728 260.054 174.284L277.725 171.79C291.943 195.477 296.539 224.441 298.82 263.24Z" fill="white"/>
<path fill-rule="evenodd" clip-rule="evenodd" d="M278.66 171.805L278.862 171.808C318.025 196.796 341.337 234.954 348.798 286.281L335.949 288.593C327.616 278.571 317.394 262.222 305.282 239.546C308.896 253.149 311.472 267.083 312.139 280.232L257.126 279.382C246.892 252.291 271.882 171.7 271.882 171.7L275.68 171.759L278.66 171.805Z" fill="#9F85FF"/>
</svg>
