<svg width="434" height="446" viewBox="0 0 434 446" fill="none" xmlns="http://www.w3.org/2000/svg">
<path fill-rule="evenodd" clip-rule="evenodd" d="M214.311 133.849C210.087 136.308 205.957 137.463 204.035 136.936C199.214 135.613 199.043 117.892 202.895 110.966C206.748 104.04 226.048 101.294 226.804 115.145C227.067 119.953 224.985 124.208 221.953 127.659L226.907 152.64L211.397 152.4L214.311 133.849Z" fill="#ECC096"/>
<path fill-rule="evenodd" clip-rule="evenodd" d="M211.86 103.054C213.91 102.75 219.417 102.604 220.432 102.62C221.081 102.63 221.782 102.789 222.175 102.199C222.497 101.716 222.395 100.889 222.497 100.324C222.617 99.6682 222.782 99.0213 222.948 98.376C223.422 96.5399 224.124 94.7968 225.092 93.1652C226.909 90.1039 229.539 87.7247 232.834 86.3675C236.472 84.8689 240.567 84.5762 244.45 84.9516C248.605 85.3532 252.35 86.7854 256.258 88.1391C259.982 89.429 263.895 89.9746 267.819 89.4334C271.773 88.8882 274.786 86.7954 278.144 84.8168C281.582 82.7912 285.496 81.4921 289.517 81.8667C293.271 82.2166 296.711 83.8227 299.787 85.9448C302.665 87.9303 305.028 90.3021 306.332 93.609C307.735 97.1662 307.673 101.046 305.229 104.133C301.685 108.607 295.219 109.679 289.856 109.479C286.754 109.364 283.715 108.75 280.802 107.674C276.916 106.239 273.576 103.857 269.95 101.909C268.248 100.996 266.486 100.24 264.636 99.6861C262.84 99.1486 261.068 98.8875 259.418 99.9522C257.673 101.079 256.107 102.187 254.12 102.879C252.214 103.542 250.2 103.898 248.18 103.851C244.251 103.76 240.396 102.475 236.592 101.596C233.49 100.879 230.17 100.161 226.987 100.755C225.659 101.003 223.717 101.527 223.217 102.896C231.243 104.48 234.251 114.488 231.869 121.763C230.583 125.69 223.15 130.189 220.32 128.07C218.527 126.728 219.655 125.02 220.385 123.892C221.783 121.732 222.293 118.937 219.792 117.38C217.634 116.037 215.296 119.111 215.253 119.107C214.655 119.051 209.529 116.045 206.031 111.719C202.513 111.874 202.015 109.546 202.884 107.663C203.753 105.779 209.029 103.474 211.86 103.054Z" fill="#191847"/>
<path fill-rule="evenodd" clip-rule="evenodd" d="M238.587 206.498C237.176 222.392 161.383 268.078 160.924 269.385C160.619 270.257 183.435 325.145 183.435 325.145L176.833 327.595C176.833 327.595 141.438 269.291 143.397 263.167C146.201 254.399 202.537 206.11 202.537 206.11L238.587 206.498Z" fill="#ECC096"/>
<path fill-rule="evenodd" clip-rule="evenodd" d="M181.835 316.909L171.061 320.646C148.864 294.795 140.333 273.616 142.114 262.92C143.894 252.224 201.052 205.957 201.052 205.957L239.355 206.549C237.479 243.378 167.477 269.627 166.522 271.183C165.567 272.739 174.488 288.259 181.835 316.909Z" fill="#7E5BFF"/>
<path fill-rule="evenodd" clip-rule="evenodd" d="M183.367 324.349C184.248 323.578 185.609 323.606 186.328 324.53C187.12 325.548 188.015 326.812 188.312 327.669C188.884 329.322 189.432 332.684 189.432 332.684C187.516 333.348 154.988 344.627 154.988 344.627C154.988 344.627 152.107 340.652 154.877 339.294C157.647 337.937 159.461 336.989 159.461 336.989L172.732 324.546C173.143 324.161 173.791 324.191 174.164 324.613L175.818 326.481C175.818 326.481 178.928 326.802 180.603 326.222C181.429 325.935 182.497 325.111 183.367 324.349Z" fill="#DDE3E9"/>
<path fill-rule="evenodd" clip-rule="evenodd" d="M229.956 206.365L262.156 287.202L293.974 355.614L286.22 355.494L203.67 205.959L229.956 206.365Z" fill="#ECC096"/>
<path fill-rule="evenodd" clip-rule="evenodd" d="M291.993 352.025C293.085 351.602 294.354 352.094 294.714 353.208C295.11 354.437 295.519 355.93 295.505 356.837C295.478 358.586 294.843 361.933 294.843 361.933C292.816 361.901 258.393 361.369 258.393 361.369C258.393 361.369 257.045 356.648 260.112 356.321C263.179 355.993 265.208 355.723 265.208 355.723L281.932 348.571C282.45 348.35 283.049 348.6 283.256 349.124L284.17 351.445C284.17 351.445 286.984 352.812 288.756 352.839C289.63 352.853 290.915 352.443 291.993 352.025Z" fill="#DDE3E9"/>
<path fill-rule="evenodd" clip-rule="evenodd" d="M291.224 341.462L273.944 344.428C260.924 324.626 206.41 243.415 200.874 205.915L239.234 206.508C259.231 233.863 278.833 321.345 291.224 341.462Z" fill="#9B81FD"/>
<path fill-rule="evenodd" clip-rule="evenodd" d="M148.808 177.111L172.066 187.761L164.441 197.229L147.111 183.506C138.376 181.76 134.335 180.315 134.987 179.168C135.538 178.202 136.534 178.162 137.452 178.126C138.168 178.098 138.835 178.071 139.207 177.61C140.055 176.556 138.053 173.23 136.017 170.156C133.982 167.081 135.932 167.221 137.069 167.602C140.856 169.788 144.769 172.958 148.808 177.111ZM253.411 194.482L266.694 192.058C275.31 215.88 280.463 228.941 282.156 231.241C283.397 232.927 291.144 237.342 296.396 239.717C298.505 240.67 298.021 242.457 297.39 243.022C293.407 246.583 289.776 245.257 285.823 243.814C284.679 243.396 283.508 242.968 282.293 242.647C279.15 241.814 278.164 243.422 277.233 244.943C276.409 246.289 275.627 247.565 273.427 247.017C273.534 246.585 273.665 246.102 273.806 245.579C274.719 242.204 276.065 237.227 274.227 234.295C273.284 232.79 266.345 219.519 253.411 194.482Z" fill="#ECC096"/>
<path fill-rule="evenodd" clip-rule="evenodd" d="M218.224 141.727L212.65 140.681C200.296 152.306 194.89 180.609 186.72 184.24C178.996 187.673 168.178 184.068 155.327 179.228L151.232 188.013C162.778 200.903 187.626 212.027 197.86 206.054C214.222 196.505 218.505 161.56 218.224 141.727Z" fill="#9F85FF"/>
<path fill-rule="evenodd" clip-rule="evenodd" d="M241.499 212.364C241.499 212.364 207.888 211.844 192.052 211.599C189.793 211.565 190.269 208.307 190.621 206.665C194.685 187.714 209.716 167.45 210.134 140.391L224.431 138.374C235.935 157.538 239.654 180.972 241.499 212.364Z" fill="white"/>
<path fill-rule="evenodd" clip-rule="evenodd" d="M225.188 138.386L225.351 138.388C257.037 158.606 275.898 189.478 281.934 231.005L271.539 232.876C264.797 224.768 256.526 211.54 246.727 193.193C249.65 204.199 251.735 215.473 252.275 226.111L207.765 225.423C199.486 203.505 219.704 138.301 219.704 138.301L222.777 138.349L225.188 138.386Z" fill="#9F85FF"/>
</svg>
