<svg width="444" height="660" viewBox="0 0 444 660" fill="none" xmlns="http://www.w3.org/2000/svg">
<g filter="url(#filter0_d)">
<path fill-rule="evenodd" clip-rule="evenodd" d="M60.451 477.257C60.2376 544.19 114.324 598.622 181.257 598.836C248.19 599.049 302.622 544.962 302.836 478.03C303.049 411.097 248.962 356.664 182.03 356.451C115.097 356.238 60.6643 410.324 60.451 477.257ZM82.7759 477.328C82.6019 531.931 126.725 576.337 181.328 576.511C235.931 576.685 280.337 532.561 280.511 477.959C280.685 423.356 236.561 378.95 181.958 378.776C127.356 378.602 82.95 422.725 82.7759 477.328Z" fill="#FF9B21"/>
<rect width="12.7571" height="210.493" transform="matrix(-0.999995 -0.00318752 -0.00318752 0.999995 188.357 372.418)" fill="#FF9B21"/>
<rect width="12.7571" height="210.493" rx="2" transform="matrix(-0.709357 0.704849 0.704849 0.709357 111.985 398.49)" fill="#FF9B21"/>
<rect width="12.7571" height="210.493" rx="2" transform="matrix(-0.00318752 0.999995 0.999995 0.00318752 76.4177 470.929)" fill="#FF9B21"/>
<rect width="12.7571" height="210.493" rx="2" transform="matrix(0.704849 0.709357 0.709357 -0.704849 102.49 547.301)" fill="#FF9B21"/>
</g>
<path fill-rule="evenodd" clip-rule="evenodd" d="M173.415 88.2877C168.117 92.4276 162.7 94.7787 159.979 94.4246C153.154 93.5367 149.583 69.4818 153.534 59.3406C157.485 49.1994 183.292 41.822 186.932 60.5067C188.196 66.9916 186.158 73.1677 182.672 78.431L194.135 111.451L172.934 114.054L173.415 88.2877Z" fill="#ECC096"/>
<path fill-rule="evenodd" clip-rule="evenodd" d="M164.272 46.8932C167.01 46.0933 174.495 44.8554 175.882 44.6853C176.769 44.5764 177.755 44.6604 178.18 43.7842C178.529 43.0667 178.233 41.9619 178.267 41.1748C178.306 40.2605 178.409 39.35 178.515 38.4414C178.816 35.8561 179.444 33.3546 180.457 30.9539C182.36 26.4498 185.499 22.7193 189.737 20.2524C194.417 17.5285 199.948 16.3573 205.314 16.1343C211.057 15.8955 216.435 17.135 222.02 18.2371C227.343 19.2872 232.783 19.2898 238.033 17.8132C243.323 16.3255 247.039 12.9119 251.247 9.58834C255.555 6.18584 260.648 3.68109 266.204 3.43094C271.391 3.19757 276.385 4.73108 280.98 7.03466C285.28 9.18994 288.95 11.9675 291.351 16.2161C293.934 20.7863 294.581 26.0715 291.828 30.7288C287.837 37.4797 279.219 40.1569 271.867 40.8987C267.614 41.328 263.354 41.0676 259.177 40.1551C253.606 38.938 248.602 36.3305 243.289 34.3686C240.796 33.4479 238.251 32.753 235.623 32.3499C233.072 31.9585 230.605 31.9383 228.556 33.697C226.387 35.5576 224.461 37.3602 221.881 38.6751C219.405 39.9366 216.725 40.8012 213.962 41.1189C208.585 41.737 203.085 40.7186 197.731 40.2415C193.365 39.8526 188.702 39.5033 184.472 40.9118C182.707 41.4996 180.156 42.5789 179.733 44.5344C190.979 45.1715 196.965 58.2063 195.086 68.5453C194.072 74.1257 184.781 81.6443 180.522 79.2991C177.824 77.8133 179.04 75.2784 179.823 73.6075C181.323 70.4075 181.493 66.5128 177.788 64.8681C174.592 63.4496 171.983 68.0704 171.923 68.073C171.097 68.1091 163.538 64.9911 157.953 59.7726C153.183 60.6465 152.066 57.5774 152.897 54.8533C153.727 52.1292 160.489 47.9989 164.272 46.8932Z" fill="#191847"/>
<path fill-rule="evenodd" clip-rule="evenodd" d="M219.186 186.144C217.582 207.981 114.2 272.271 113.597 274.075C113.194 275.278 145.775 350.102 145.775 350.102L136.738 353.604C136.738 353.604 86.7645 274.359 89.3313 265.915C93.0063 253.826 169.544 186.377 169.544 186.377L219.186 186.144Z" fill="#ECC096"/>
<path fill-rule="evenodd" clip-rule="evenodd" d="M146.27 348.455C147.121 347.653 148.479 347.666 149.228 348.565C150.436 350.016 152.049 352.106 152.545 353.463C153.368 355.718 154.194 360.319 154.194 360.319C151.57 361.271 107.024 377.436 107.024 377.436C107.024 377.436 102.972 372.042 106.757 370.122C110.543 368.201 113.021 366.861 113.021 366.861L131.307 349.238C131.712 348.848 132.36 348.869 132.74 349.284L135.317 352.097C135.317 352.097 139.607 352.472 141.9 351.64C143.233 351.156 145.014 349.639 146.27 348.455Z" fill="#E4E4E4"/>
<path fill-rule="evenodd" clip-rule="evenodd" d="M207.3 186.144L253.354 296.374L298.617 389.564L287.938 389.564L171.1 186.144L207.3 186.144Z" fill="#ECC096"/>
<path fill-rule="evenodd" clip-rule="evenodd" d="M296.573 384.364C297.647 383.901 298.918 384.376 299.313 385.476C299.95 387.251 300.75 389.766 300.75 391.21C300.75 393.61 299.948 398.215 299.948 398.215C297.155 398.215 249.75 398.215 249.75 398.215C249.75 398.215 247.793 391.766 252.009 391.251C256.225 390.737 259.013 390.323 259.013 390.323L282.243 379.998C282.757 379.769 283.358 380.01 283.573 380.53L285.029 384.052C285.029 384.052 288.932 385.867 291.372 385.867C292.792 385.867 294.986 385.048 296.573 384.364Z" fill="#E4E4E4"/>
<path fill-rule="evenodd" clip-rule="evenodd" d="M294.53 370.205L270.801 374.641C252.453 347.748 175.668 237.478 167.25 186.144L220.076 186.144C248.191 223.253 277.041 342.867 294.53 370.205Z" fill="#A7F543"/>
<path fill-rule="evenodd" clip-rule="evenodd" d="M143.397 338.837L128.643 344.192C97.5305 309.193 85.3354 280.317 87.559 265.604C89.7826 250.89 167.495 186.198 167.495 186.198L220.245 186.198C218.445 236.768 122.622 274.267 121.341 276.422C120.059 278.577 132.672 299.684 143.397 338.837Z" fill="#3E9F42"/>
<path fill-rule="evenodd" clip-rule="evenodd" d="M92.2173 159.46L125.946 169.544L117.329 183.853L91.1065 168.472C78.8634 167.75 73.079 166.548 73.7533 164.867C74.3219 163.449 75.674 163.207 76.9194 162.984C77.8895 162.811 78.795 162.649 79.2149 161.951C80.1738 160.359 76.8161 156.217 73.461 152.422C70.106 148.626 72.792 148.449 74.4143 148.752C79.9918 151.009 85.9262 154.578 92.2173 159.46ZM238.164 163.319L255.826 157.515C272.064 188.268 281.553 205.048 284.295 207.854C286.305 209.912 297.703 214.45 305.315 216.686C308.37 217.583 308.047 220.104 307.292 220.99C302.53 226.582 297.328 225.466 291.665 224.251C290.026 223.899 288.348 223.539 286.63 223.331C282.186 222.793 281.145 225.165 280.161 227.408C279.29 229.393 278.463 231.276 275.36 230.946C275.424 230.339 275.512 229.657 275.606 228.92C276.216 224.161 277.115 217.141 274.056 213.503C272.485 211.635 260.522 194.907 238.164 163.319Z" fill="#ECC096"/>
<path fill-rule="evenodd" clip-rule="evenodd" d="M180.235 98.2567L172.436 97.8883C157.774 116.022 155.731 155.513 145.272 161.991C135.383 168.116 119.947 165.259 101.507 161.107L97.5773 173.821C115.752 189.162 151.739 199.589 164.574 189.538C185.093 173.468 184.354 125.162 180.235 98.2567Z" fill="#1C6D33"/>
<path fill-rule="evenodd" clip-rule="evenodd" d="M225.284 189.873C225.284 189.873 179.343 195.514 157.697 198.172C154.608 198.551 154.644 194.033 154.815 191.735C156.789 165.209 173.475 134.828 168.949 97.9694L188.071 92.5278C207.371 116.404 216.856 147.554 225.284 189.873Z" fill="white"/>
<path fill-rule="evenodd" clip-rule="evenodd" d="M189.106 92.4007L189.328 92.3733C236.355 113.87 267.895 152.27 283.949 207.575L270.122 212.081C259.399 202.333 245.627 185.916 228.807 162.829C234.867 177.237 239.833 192.166 242.572 206.524L181.733 213.994C166.312 185.765 181.609 93.3211 181.609 93.3211L185.81 92.8054L189.106 92.4007Z" fill="#1C6D33"/>
<defs>
<filter id="filter0_d" x="56.0647" y="356.065" width="251.157" height="251.157" filterUnits="userSpaceOnUse" color-interpolation-filters="sRGB">
<feFlood flood-opacity="0" result="BackgroundImageFix"/>
<feColorMatrix in="SourceAlpha" type="matrix" values="0 0 0 0 0 0 0 0 0 0 0 0 0 0 0 0 0 0 127 0"/>
<feOffset dy="4"/>
<feGaussianBlur stdDeviation="2"/>
<feColorMatrix type="matrix" values="0 0 0 0 0 0 0 0 0 0 0 0 0 0 0 0 0 0 0.25 0"/>
<feBlend mode="normal" in2="BackgroundImageFix" result="effect1_dropShadow"/>
<feBlend mode="normal" in="SourceGraphic" in2="effect1_dropShadow" result="shape"/>
</filter>
</defs>
</svg>
