<svg width="415" height="635" viewBox="0 0 415 635" fill="none" xmlns="http://www.w3.org/2000/svg">
<g filter="url(#filter0_d)">
<path fill-rule="evenodd" clip-rule="evenodd" d="M35.58 509.01C52.9035 573.663 119.358 612.03 184.01 594.707C248.663 577.383 287.03 510.929 269.707 446.276C252.383 381.624 185.929 343.256 121.276 360.58C56.624 377.904 18.2564 444.358 35.58 509.01ZM57.1443 503.232C71.2767 555.975 125.49 587.275 178.232 573.142C230.975 559.01 262.275 504.797 248.142 452.054C234.01 399.312 179.797 368.012 127.054 382.144C74.3118 396.277 43.012 450.49 57.1443 503.232Z" fill="#FF9B21"/>
<rect width="12.7571" height="210.493" transform="matrix(-0.965926 0.258819 0.258819 0.965926 131.565 374.332)" fill="#FF9B21"/>
<rect width="12.7571" height="210.493" rx="2" transform="matrix(-0.5 0.866025 0.866025 0.5 64.6865 419.496)" fill="#FF9B21"/>
<rect width="12.7571" height="210.493" rx="2" transform="matrix(0.258819 0.965926 0.965926 -0.258819 49.3322 498.722)" fill="#FF9B21"/>
<rect width="12.7571" height="210.493" rx="2" transform="matrix(0.866025 0.5 0.5 -0.866025 94.4961 565.6)" fill="#FF9B21"/>
</g>
<path fill-rule="evenodd" clip-rule="evenodd" d="M144.415 88.2877C139.117 92.4277 133.7 94.7787 130.979 94.4246C124.154 93.5367 120.583 69.4818 124.534 59.3406C128.485 49.1994 154.292 41.822 157.932 60.5068C159.196 66.9916 157.158 73.1677 153.672 78.431L165.135 111.451L143.934 114.054L144.415 88.2877Z" fill="#ECC096"/>
<path fill-rule="evenodd" clip-rule="evenodd" d="M135.272 46.8932C138.01 46.0933 145.495 44.8554 146.882 44.6853C147.769 44.5764 148.755 44.6604 149.18 43.7842C149.529 43.0667 149.233 41.9619 149.267 41.1748C149.306 40.2605 149.409 39.35 149.515 38.4415C149.816 35.8561 150.444 33.3546 151.457 30.9539C153.36 26.4498 156.499 22.7193 160.737 20.2524C165.417 17.5285 170.948 16.3573 176.314 16.1343C182.057 15.8955 187.435 17.1351 193.02 18.2371C198.343 19.2872 203.783 19.2898 209.033 17.8132C214.323 16.3255 218.039 12.9119 222.247 9.58837C226.555 6.18587 231.648 3.68112 237.204 3.43097C242.391 3.1976 247.385 4.7311 251.98 7.03469C256.28 9.18997 259.95 11.9675 262.351 16.2161C264.934 20.7863 265.581 26.0716 262.828 30.7289C258.837 37.4797 250.219 40.1569 242.867 40.8987C238.614 41.3281 234.354 41.0676 230.177 40.1551C224.606 38.938 219.602 36.3305 214.289 34.3686C211.796 33.448 209.251 32.753 206.623 32.3499C204.072 31.9585 201.605 31.9383 199.556 33.697C197.387 35.5576 195.461 37.3603 192.881 38.6751C190.405 39.9366 187.725 40.8012 184.962 41.1189C179.585 41.7371 174.085 40.7186 168.731 40.2415C164.365 39.8526 159.702 39.5033 155.472 40.9118C153.707 41.4996 151.156 42.5789 150.733 44.5344C161.979 45.1715 167.965 58.2063 166.086 68.5453C165.072 74.1257 155.781 81.6443 151.522 79.2991C148.824 77.8133 150.04 75.2785 150.823 73.6075C152.323 70.4075 152.493 66.5128 148.788 64.8681C145.592 63.4496 142.983 68.0704 142.923 68.073C142.097 68.1091 134.538 64.9912 128.953 59.7726C124.183 60.6466 123.066 57.5774 123.897 54.8533C124.727 52.1292 131.489 47.9989 135.272 46.8932Z" fill="#191847"/>
<path fill-rule="evenodd" clip-rule="evenodd" d="M190.186 186.144C188.582 207.981 85.1997 272.271 84.5965 274.075C84.1944 275.278 116.775 350.102 116.775 350.102L107.738 353.604C107.738 353.604 57.7645 274.359 60.3313 265.915C64.0063 253.826 140.544 186.377 140.544 186.377L190.186 186.144Z" fill="#ECC096"/>
<path fill-rule="evenodd" clip-rule="evenodd" d="M114.397 338.837L99.6427 344.192C68.5305 309.193 56.3354 280.317 58.559 265.603C60.7826 250.89 138.495 186.198 138.495 186.198L191.245 186.198C189.445 236.768 93.6225 274.267 92.3408 276.422C91.0592 278.577 103.672 299.684 114.397 338.837Z" fill="#A7F543"/>
<path fill-rule="evenodd" clip-rule="evenodd" d="M117.27 348.455C118.121 347.653 119.479 347.666 120.228 348.565C121.436 350.016 123.049 352.106 123.545 353.463C124.368 355.718 125.194 360.319 125.194 360.319C122.569 361.271 78.0235 377.436 78.0235 377.436C78.0235 377.436 73.9724 372.042 77.7574 370.122C81.5425 368.201 84.0206 366.861 84.0206 366.861L102.307 349.238C102.712 348.848 103.36 348.869 103.74 349.284L106.317 352.097C106.317 352.097 110.607 352.472 112.9 351.64C114.233 351.156 116.014 349.639 117.27 348.455Z" fill="#E4E4E4"/>
<path fill-rule="evenodd" clip-rule="evenodd" d="M178.3 186.144L224.354 296.374L269.617 389.564L258.938 389.564L142.1 186.144L178.3 186.144Z" fill="#ECC096"/>
<path fill-rule="evenodd" clip-rule="evenodd" d="M267.573 384.364C268.647 383.901 269.918 384.376 270.313 385.476C270.95 387.251 271.75 389.766 271.75 391.21C271.75 393.61 270.947 398.215 270.947 398.215C268.155 398.215 220.75 398.215 220.75 398.215C220.75 398.215 218.793 391.766 223.009 391.251C227.225 390.737 230.013 390.323 230.013 390.323L253.243 379.998C253.757 379.769 254.358 380.01 254.573 380.53L256.029 384.052C256.029 384.052 259.932 385.867 262.372 385.867C263.792 385.867 265.986 385.049 267.573 384.364Z" fill="#E4E4E4"/>
<path fill-rule="evenodd" clip-rule="evenodd" d="M265.53 370.205L241.8 374.641C223.453 347.748 146.668 237.478 138.25 186.144L191.076 186.144C219.191 223.253 248.041 342.867 265.53 370.205Z" fill="#3E9F42"/>
<path fill-rule="evenodd" clip-rule="evenodd" d="M63.2173 159.46L96.9465 169.544L88.3288 183.853L62.1065 168.472C49.8634 167.75 44.079 166.548 44.7533 164.867C45.3219 163.449 46.674 163.207 47.9194 162.984C48.8895 162.811 49.795 162.649 50.2149 161.951C51.1738 160.359 47.8161 156.217 44.461 152.422C41.106 148.626 43.792 148.449 45.4143 148.752C50.9918 151.009 56.9262 154.578 63.2173 159.46ZM209.164 163.319L226.826 157.515C243.064 188.268 252.553 205.048 255.295 207.854C257.305 209.912 268.703 214.45 276.315 216.686C279.37 217.583 279.047 220.104 278.292 220.99C273.53 226.582 268.328 225.466 262.665 224.251C261.026 223.899 259.348 223.539 257.63 223.331C253.186 222.793 252.145 225.165 251.161 227.408C250.29 229.393 249.463 231.276 246.36 230.946C246.424 230.339 246.512 229.657 246.606 228.92C247.216 224.161 248.115 217.141 245.056 213.503C243.485 211.635 231.522 194.907 209.164 163.319Z" fill="#ECC096"/>
<path fill-rule="evenodd" clip-rule="evenodd" d="M151.235 98.2567L143.436 97.8883C128.774 116.022 126.731 155.513 116.272 161.991C106.383 168.116 90.9473 165.259 72.5072 161.107L68.5773 173.821C86.7522 189.162 122.739 199.589 135.573 189.538C156.092 173.468 155.354 125.162 151.235 98.2567Z" fill="#1C6D33"/>
<path fill-rule="evenodd" clip-rule="evenodd" d="M196.284 189.873C196.284 189.873 150.343 195.514 128.697 198.172C125.608 198.551 125.644 194.033 125.815 191.735C127.789 165.209 144.475 134.828 139.949 97.9694L159.071 92.5278C178.371 116.404 187.856 147.554 196.284 189.873Z" fill="white"/>
<path fill-rule="evenodd" clip-rule="evenodd" d="M160.106 92.4007L160.328 92.3733C207.355 113.87 238.895 152.27 254.949 207.575L241.122 212.081C230.399 202.333 216.627 185.916 199.807 162.829C205.867 177.237 210.833 192.166 213.572 206.524L152.733 213.994C137.312 185.765 152.609 93.3211 152.609 93.3211L156.81 92.8054L160.106 92.4007Z" fill="#1C6D33"/>
<defs>
<filter id="filter0_d" x="0.212921" y="329.213" width="304.861" height="304.861" filterUnits="userSpaceOnUse" color-interpolation-filters="sRGB">
<feFlood flood-opacity="0" result="BackgroundImageFix"/>
<feColorMatrix in="SourceAlpha" type="matrix" values="0 0 0 0 0 0 0 0 0 0 0 0 0 0 0 0 0 0 127 0"/>
<feOffset dy="4"/>
<feGaussianBlur stdDeviation="2"/>
<feColorMatrix type="matrix" values="0 0 0 0 0 0 0 0 0 0 0 0 0 0 0 0 0 0 0.25 0"/>
<feBlend mode="normal" in2="BackgroundImageFix" result="effect1_dropShadow"/>
<feBlend mode="normal" in="SourceGraphic" in2="effect1_dropShadow" result="shape"/>
</filter>
</defs>
</svg>
