<svg width="236" height="237" viewBox="0 0 236 237" fill="none" xmlns="http://www.w3.org/2000/svg">
<path fill-rule="evenodd" clip-rule="evenodd" d="M4.944 123.353C5.19996 185.836 56.0275 234.344 118.471 231.698C180.914 229.052 231.326 176.255 231.07 113.771C230.814 51.288 179.987 2.7801 117.544 5.42593C55.1006 8.07176 4.68804 60.8694 4.944 123.353ZM25.7716 122.47C25.9804 173.443 67.445 213.016 118.385 210.857C169.326 208.699 210.452 165.627 210.243 114.654C210.034 63.6805 168.57 24.1083 117.629 26.2667C66.6889 28.4252 25.5628 71.4969 25.7716 122.47Z" fill="#FCCD04"/>
<animateTransform
  id="wheel"
  attributeName="transform"
  type="rotate"
  from="360 0 0"
  to="0 0 0"
  begin="0s;wheel.end"
  dur="20s"

  />
<rect width="11.8066" height="198.239" transform="matrix(-0.99921 0.0397299 0.00660529 0.999978 123.251 19.21)" fill="#FCCD04"/>
<rect width="12.1067" height="193.25" rx="2" transform="matrix(-0.684403 0.729104 0.717044 0.697028 52.8657 46.7983)" fill="#FCCD04"/>
<rect width="12.0145" height="194.81" rx="2" transform="matrix(0.00660552 0.999978 0.99921 -0.0397296 20.6401 116.425)" fill="#FCCD04"/>
<rect width="11.7121" height="199.76" rx="2" transform="matrix(0.717044 0.697028 0.684404 -0.729103 45.4502 187.303)" fill="#FCCD04"/>
</svg>
